<?xml version="1.0" standalone="no"?>
<!DOCTYPE svg PUBLIC "-//W3C//DTD SVG 1.1//EN" "http://www.w3.org/Graphics/SVG/1.1/DTD/svg11.dtd" >
<svg xmlns="http://www.w3.org/2000/svg">
<metadata>
This is a custom SVG webfont generated by Font Squirrel.
Foundry     : LeFly
</metadata>
<defs>
<font id="webfontNX9Rs4d2" horiz-adv-x="573" >
<font-face units-per-em="1000" ascent="800" descent="-200" />
<missing-glyph horiz-adv-x="500" />
<glyph unicode="!" horiz-adv-x="254" d="M169 914q1 8 6 12.5t13 3.5t12.5 -6.5t2.5 -12.5l-74 -731q-1 -7 -6 -11.5t-13 -3.5q-16 2 -16 19zM66 -10q-7 1 -11.5 6t-3.5 13t6 12.5t13 2.5l39 -4q8 -1 12.5 -6.5t3.5 -12.5q-1 -8 -6.5 -12.5t-13.5 -3.5z" />
<glyph unicode="&#x22;" horiz-adv-x="313" d="M107 842q-7 2 -10.5 8t-1.5 13q2 8 8 11.5t13 1.5q20 -5 32 -19.5t10 -35.5q-2 -16 -10 -31.5t-19.5 -29.5t-24.5 -25.5t-25 -20.5q-6 -5 -13 -3.5t-12 6.5q-5 6 -3.5 13t7.5 12q9 7 19.5 16t20.5 20t17 23t8 24q0 8 -4 11t-12 6zM211 842q-7 2 -10 8.5t-1 12.5 q2 8 8 11.5t13 1.5q20 -6 31.5 -20.5t9.5 -35.5q-6 -32 -32 -60t-50 -45q-6 -5 -13 -3.5t-12 7.5t-3.5 13t7.5 12q9 6 20.5 15t21 19.5t17 22.5t9.5 24q0 8 -4 11t-12 6z" />
<glyph unicode="#" horiz-adv-x="739" d="M526 910q1 8 6.5 12.5t12.5 3.5q8 -1 12.5 -6.5t3.5 -12.5l-30 -280l140 4q8 0 13 -4.5t5 -12.5t-4.5 -13t-12.5 -5l-144 -5l-29 -270l137 5q8 0 13 -5t5 -12q1 -8 -4 -13t-13 -5l-141 -5l-31 -298q-1 -7 -6.5 -11.5t-13.5 -3.5q-7 1 -11.5 6t-3.5 13l30 293l-233 -7 l-31 -294q-1 -8 -6 -12.5t-13 -3.5q-7 1 -11.5 6.5t-3.5 12.5l30 290l-123 -4q-8 0 -13 4.5t-5 12.5q-1 8 4 13t13 5l128 4l28 270l-121 -4q-7 0 -12.5 5t-5.5 13q0 7 5 12t12 6l126 4l30 284q1 7 6 11.5t13 3.5t12.5 -6t3.5 -13l-30 -279l233 7zM230 313l234 7l28 270 l-233 -7z" />
<glyph unicode="$" horiz-adv-x="764" d="M326 -11h-5q-41 0 -82.5 14.5t-78 38t-65 53.5t-43.5 61q-3 7 -0.5 13.5t9.5 10.5q6 3 13 0.5t10 -9.5q13 -27 38 -53.5t57.5 -47.5t69.5 -33.5t73 -12.5q2 0 4 -0.5t4 -0.5l54 416q-3 0 -4 1q-49 15 -96.5 32t-84.5 39.5t-59.5 53.5t-22.5 75q0 37 10 71.5t27 64 t39.5 53.5t47.5 39q40 24 90.5 35t113.5 13l7 49q2 7 7 11.5t13 3.5t12 -6.5t3 -12.5l-6 -45h3q37 -1 67 -6.5t55 -15.5q51 -22 79.5 -61.5t28.5 -87.5q0 -31 -13 -63q-7 -15 -23 -10q-6 3 -9 9.5t0 13.5q10 24 10 50q0 38 -22.5 69t-63.5 48q-22 8 -49 13t-61 6h-7 l-54 -417q47 -15 90 -31.5t77 -39.5t54 -54t20 -74q0 -42 -14 -80.5t-35.5 -70.5t-48.5 -56t-54 -37q-38 -18 -75.5 -24t-75.5 -8l-5 -44q-1 -7 -6.5 -11.5t-12.5 -3.5q-8 1 -12.5 6.5t-2.5 13.5zM155 672q-9 -44 8 -75t51 -53.5t79.5 -38.5t94.5 -31l53 407 q-57 -2 -102 -12t-80 -31q-40 -25 -65.5 -65.5t-38.5 -100.5zM626 260q0 35 -17.5 61t-46.5 45.5t-66.5 34t-78.5 27.5l-52 -404q32 1 66 7t65 21q22 11 45 31t42 47.5t31 60.5t12 69z" />
<glyph unicode="%" horiz-adv-x="766" d="M677 911q5 5 12 5q8 0 13 -5t5 -12t-5 -12q-26 -28 -66 -81l-88 -124l-102 -148l-104 -158l-98 -150l-82 -128l-58 -90l-21 -33q-4 -6 -11 -8t-13 2t-8 11t3 14l21 34l57 89l82 129l99 151l105 159l102 148l90 124q41 55 67 83zM164 826q3 23 21.5 35t39.5 12 q22 0 39.5 -11t30 -28t19.5 -38t7 -41q0 -21 -8 -39.5t-21.5 -32t-32 -21.5t-39.5 -8q-19 0 -38 6t-34 17.5t-24 29t-9 39.5q0 17 7 41t20 37q9 9 22 2zM559 247q3 23 21.5 35t39.5 12q22 0 39.5 -11t30 -28t19.5 -38t7 -41q0 -21 -8 -39.5t-21.5 -32t-32 -21.5t-39.5 -8 q-19 0 -38 6t-34 17.5t-24 29t-9 39.5q0 17 7 41t20 37q9 9 22 2zM198 809q1 -7 -3 -12.5t-12 -6.5q-11 -2 -17 8q-9 -9 -12.5 -25t-3.5 -27q0 -30 22.5 -43.5t47.5 -13.5q27 0 46.5 19t19.5 47q0 13 -4 27.5t-12 27t-19 20.5t-26 8q-11 0 -19 -5.5t-8 -17.5v-6zM593 230 q1 -7 -3 -12.5t-12 -6.5q-11 -2 -17 8q-9 -9 -12.5 -25t-3.5 -27q0 -30 22.5 -43.5t47.5 -13.5q27 0 46.5 19t19.5 47q0 13 -4 27.5t-12 27t-19 20.5t-26 8q-11 0 -19 -5.5t-8 -17.5v-6z" />
<glyph unicode="&#x26;" horiz-adv-x="751" d="M656 20q5 -5 5 -13q0 -7 -6 -12q-5 -5 -12 -4.5t-12 5.5q-1 1 -32 34l-79 88q-25 -29 -53 -54.5t-57 -44.5t-59.5 -30t-61.5 -11q-55 0 -101.5 9.5t-79.5 36.5q-28 23 -43 58t-15 88q0 48 14.5 88t40.5 75t63.5 66t83.5 61q-45 70 -73 132t-25 104q5 62 32 112 q34 60 90.5 87.5t117.5 27.5q40 0 76 -14.5t60 -43.5q25 -29 34 -69.5t5 -84.5q-4 -38 -30 -73.5t-65 -67.5t-85 -62l-89 -58q50 -73 108 -146l112 -134q32 41 59 82t46.5 74t30.5 54l11 21q4 7 10.5 9.5t13.5 -1.5q6 -3 8.5 -10t-0.5 -14l-11 -22q-12 -22 -32.5 -56.5 t-49 -77.5t-63.5 -85l81 -89q32 -34 32 -35zM498 143l-114 137q-61 75 -112 151q-43 -28 -78 -56.5t-59 -59.5t-37 -66.5t-13 -77.5q0 -45 12 -74t33 -46q27 -22 68 -30.5t91 -8.5q27 0 54.5 10.5t54 28t51.5 41.5t49 51zM189 694q-3 -38 23 -94t68 -122l82 54q43 28 80 58 t63 61.5t29 62.5q4 35 -4 70.5t-27 58.5q-19 21 -48 33t-61 12q-53 0 -100.5 -22.5t-76.5 -73.5q-25 -44 -28 -98z" />
<glyph unicode="'" horiz-adv-x="209" d="M107 842q-7 2 -10.5 8t-1.5 13q2 8 8 11.5t13 1.5q20 -5 32 -19.5t10 -35.5q-2 -16 -10 -31.5t-19.5 -29.5t-24.5 -25.5t-25 -20.5q-6 -5 -13 -3.5t-12 6.5q-5 6 -3.5 13t7.5 12q9 7 19.5 16t20.5 20t17 23t8 24q0 8 -4 11t-12 6z" />
<glyph unicode="(" horiz-adv-x="394" d="M314 1008q5 5 12 5t12 -5q12 -13 0 -25l-16 -16q-16 -16 -40.5 -46.5t-54 -74.5t-57 -101t-49.5 -126.5t-32 -149.5q-2 -22 -3.5 -43t-1.5 -41q0 -68 11.5 -127t29.5 -107.5t38 -87t38 -65t29 -40.5l12 -14q5 -5 4.5 -12t-5.5 -12t-12 -4.5t-12 5.5l-13 15 q-12 14 -30.5 41.5t-40 68t-40 91.5t-31 113t-12.5 133q0 22 1 44.5t4 45.5q10 83 33 155.5t51.5 132t59.5 105.5t56.5 77.5t42.5 48.5z" />
<glyph unicode=")" horiz-adv-x="388" d="M146 990q-5 5 -4 12t6 12q14 12 25 -2l13 -16q12 -16 30.5 -46t39.5 -71.5t39.5 -93.5t30.5 -112.5t12 -127.5q0 -19 -1 -37t-3 -38q-9 -76 -31 -146t-50 -131.5t-58.5 -112t-55.5 -86.5t-41 -56l-17 -20q-12 -12 -25 -2q-5 5 -6 12t4 13l16 19q16 19 40.5 54t54 83.5 t56.5 108t48.5 127.5t30.5 141q2 18 3 36t1 35q0 64 -11.5 121.5t-29.5 107t-38 89.5t-38 68t-29 43z" />
<glyph unicode="*" horiz-adv-x="420" d="M77 643q-6 -4 -13 -2.5t-11 8.5q-4 6 -2 13t8 11l127 75l-120 92q-5 5 -6.5 12t3.5 13t12 7t12 -4l116 -89l18 135q2 7 7 11.5t13 3.5q17 -3 15 -20l-18 -130l101 60q15 8 24 -6q8 -15 -6 -24l-109 -64l115 -87q6 -4 6.5 -11.5t-3.5 -12.5q-5 -6 -12 -7t-12 4l-112 84 l-18 -134q-1 -8 -6.5 -12t-12.5 -3q-8 1 -12.5 6.5t-2.5 12.5l16 128z" />
<glyph unicode="+" d="M268 301l-200 -1q-16 0 -18 17q0 7 5 12t12 5l205 1l27 240q1 7 6 11.5t13 3.5q7 -1 11.5 -6.5t3.5 -12.5l-26 -236l198 2q8 1 13 -4t5 -13t-5 -13t-13 -5l-202 -1l-31 -281q-1 -8 -6 -12.5t-13 -3.5t-12.5 6.5t-3.5 13.5z" />
<glyph unicode="," horiz-adv-x="209" d="M107 17q-7 2 -10.5 8t-1.5 13q2 8 8 11.5t13 1.5q20 -5 32 -19.5t10 -35.5q-2 -16 -10 -31.5t-19.5 -29.5t-24.5 -25.5t-25 -20.5q-6 -5 -13 -3.5t-12 6.5q-5 6 -3.5 13t7.5 12q9 7 19.5 16t20.5 20t17 23t8 24q0 8 -4 11t-12 6z" />
<glyph unicode="-" d="M68 300q-16 0 -18 17q0 7 5 12t12 5l438 3q8 1 13 -4t5 -13t-5 -13t-13 -5z" />
<glyph unicode="." horiz-adv-x="168" d="M66 -15q-7 2 -11.5 7.5t-3.5 12.5q2 8 7.5 12t12.5 3l31 -4q7 -2 11.5 -7.5t3.5 -12.5q-2 -8 -7.5 -12t-12.5 -3z" />
<glyph unicode="/" horiz-adv-x="758" d="M677 911q5 5 12 5q8 0 13 -5t5 -12t-5 -12q-26 -28 -66 -81l-88 -124l-102 -148l-104 -158l-98 -150l-82 -128l-58 -90l-21 -33q-4 -6 -11 -8t-13 2t-8 11t3 14l21 34l57 89l82 129l99 151l105 159l102 148l90 124q41 55 67 83z" />
<glyph unicode="0" horiz-adv-x="748" d="M203 671q-1 -8 -6.5 -12.5t-12.5 -4.5q-8 1 -12.5 6.5t-3.5 12.5q3 55 24 98.5t56 74t81 46.5t97 16q71 0 122 -35.5t84 -91t49 -124.5t16 -135q0 -20 -1.5 -38.5t-3.5 -36.5q-11 -76 -41 -156.5t-76.5 -146.5t-109.5 -108t-140 -42q-72 0 -123.5 36t-85.5 92t-50 124.5 t-16 133.5q0 78 19.5 152t51.5 143q3 7 10 9t13 -1q16 -7 9 -23q-31 -66 -49.5 -136.5t-18.5 -143.5q0 -57 13.5 -119t42.5 -113.5t74.5 -85t109.5 -33.5q68 0 125.5 40t100.5 102t70.5 136.5t36.5 143.5q2 16 3 32.5t1 33.5q0 60 -12.5 123t-41 115t-73 85t-109.5 33 q-46 0 -85.5 -13.5t-69 -39.5t-47.5 -63.5t-21 -85.5z" />
<glyph unicode="1" horiz-adv-x="432" d="M67 5q-7 0 -12 4.5t-5 12.5t5 13t12 5h128l108 795l-191 -127q-6 -5 -13 -3.5t-11 7.5q-5 6 -3 13t8 12l223 148q9 6 19 0.5t8 -16.5l-113 -829h135q7 0 12 -5t5 -13t-5 -12.5t-12 -4.5h-298z" />
<glyph unicode="2" horiz-adv-x="662" d="M97 47q57 8 113.5 11t109.5 3t98 -2t78.5 -5t53.5 -5l19 -2q7 -2 11.5 -7t3.5 -13t-6.5 -12t-13.5 -3l-20 2q-19 2 -52.5 5t-78.5 5t-97 2q-58 0 -120.5 -3.5t-124.5 -14.5q-10 -2 -16.5 5.5t-3.5 17.5q11 29 30.5 57t46.5 56.5t61 59.5l73 63l100 86q55 47 102.5 100.5 t80 112.5t32.5 122q0 34 -15 65.5t-39.5 55.5t-57 38t-67.5 14q-61 0 -102.5 -7.5t-78.5 -33.5q-30 -21 -54.5 -55t-24.5 -72v-11q0 -8 -5 -13t-12 -5q-8 -1 -13 4t-5 13v13q0 48 28.5 88.5t65.5 66.5q40 28 87.5 38.5t113.5 8.5q42 -1 81 -18t68.5 -45.5t47 -66t17.5 -78.5 q0 -68 -33 -130.5t-82 -119t-106 -106.5l-106 -91l-115 -103q-49 -46 -73 -91z" />
<glyph unicode="3" horiz-adv-x="635" d="M127 784q-4 -7 -10.5 -8.5t-13.5 2.5q-6 3 -8 10t2 14q19 27 52 49q28 19 74.5 36t115.5 19q51 2 93.5 -13t73.5 -42.5t49.5 -67t21.5 -87.5q2 -35 -9 -69t-31 -65t-47.5 -56.5t-58.5 -44.5q30 -14 58 -35t49 -46.5t34 -56t13 -64.5q-3 -55 -21.5 -101.5t-52.5 -81 t-82 -54t-111 -21.5q-39 -1 -74 9.5t-64.5 27.5t-53 37t-39.5 37t-25 29l-8 12q-5 6 -3.5 13t7.5 11q14 9 25 -5q29 -38 65 -69q31 -26 74 -47.5t95 -19.5q55 2 97 19t71.5 46t45.5 69.5t19 88.5q-1 32 -15 61t-36.5 52.5t-51.5 41t-59 27.5q-40 -14 -80 -8q-32 3 -60 21 q-10 5 -8.5 17t12.5 15q24 6 50 6q41 0 85 -14q31 14 60 36.5t50.5 51t34 61.5t10.5 67q-3 41 -18.5 74.5t-41.5 57t-62 35.5t-80 10q-62 -2 -102.5 -16t-65.5 -30q-29 -18 -45 -41z" />
<glyph unicode="4" horiz-adv-x="639" d="M492 639q1 7 6.5 11.5t12.5 4.5q8 -1 12.5 -6.5t3.5 -12.5l-26 -276q31 2 49.5 4t19.5 2q7 1 12.5 -4t5.5 -12q1 -8 -3.5 -13t-12.5 -6q-10 -1 -21 -2q-10 -1 -23 -1.5t-30 -2.5l-28 -315q-1 -8 -6 -12.5t-13 -3.5q-7 1 -11.5 6.5t-4.5 12.5l28 310q-40 -2 -87.5 -3.5 t-95.5 -1.5q-46 0 -88 2t-74 7t-50.5 14t-16.5 23q2 13 19 42.5t44 69.5l60 88l68 96l67 92l59 78l42 55l16 21q5 6 12 7t12 -4q6 -5 7 -12t-4 -12l-15 -20l-41 -53l-57 -76l-66 -88l-66 -91l-58 -83q-26 -39 -42 -66.5t-18 -38.5q-1 -5 11 -8.5t33.5 -6t50.5 -3.5t62 -1 q54 0 112.5 2.5t106.5 5.5z" />
<glyph unicode="5" horiz-adv-x="666" d="M139 821q-8 0 -13 4.5t-5 12.5q-1 7 4 12.5t12 5.5l52 2q2 9 3.5 17t3.5 16q1 7 7 11t13 2q8 -2 12 -7.5t2 -13.5q-3 -12 -5 -23l372 18q16 0 18 -17q1 -7 -4 -12t-13 -6l-381 -19l-19 -92l-18 -94l-17 -87l-13 -67q18 10 43.5 22.5t55 23t61.5 17.5t64 7q51 0 91 -17.5 t67.5 -49t42.5 -75t15 -94.5q0 -73 -24.5 -133.5t-67.5 -103.5t-102.5 -67t-130.5 -24q-54 0 -93.5 20.5t-65.5 45.5q-31 29 -53 65q-4 7 -2 14t9 10q6 4 13 2t10 -9l11 -18q12 -17 35 -38.5t57 -39t79 -17.5q64 0 117.5 21.5t91.5 60t59.5 92.5t21.5 119q0 44 -12 80.5 t-35.5 63.5t-57 42t-76.5 15q-42 0 -84 -13t-77 -29q-40 -18 -78 -42q-10 -7 -19.5 0t-7.5 18l7 37l18 91l23 120l25 122z" />
<glyph unicode="6" horiz-adv-x="638" d="M435 935q5 5 12 4t12 -7q5 -5 4 -12t-6 -12q-74 -62 -141.5 -135t-118.5 -154.5t-81.5 -170t-30.5 -181.5q0 -54 14.5 -98.5t42.5 -77t70.5 -50t97.5 -17.5q62 0 108 21t76 57t44.5 85t14.5 105q0 38 -10.5 77.5t-32 71.5t-54 52.5t-76.5 20.5q-32 0 -61.5 -12.5 t-54 -31.5t-44 -41t-33 -40.5t-21.5 -31.5l-7 -13q-3 -7 -10 -8.5t-14 1.5q-14 9 -7 24l8 14q9 14 24.5 35t37.5 45t50 45t61.5 35t70.5 14q51 0 90 -23t65.5 -60t39.5 -83t13 -91q0 -63 -17.5 -118t-52 -96.5t-86.5 -65t-122 -23.5q-63 0 -111.5 20.5t-81.5 57.5t-50 88 t-17 112q0 96 31 189t83.5 178.5t122.5 162t148 138.5z" />
<glyph unicode="7" horiz-adv-x="639" d="M190 431q-7 0 -12 5t-5 13t5 13t13 4l149 -5l72 117l62 106q28 49 46.5 89t24.5 67q1 4 -25 6.5t-67.5 4t-93 2t-101.5 0.5h-69q-32 0 -57.5 -0.5t-42.5 -1t-20 -0.5q-8 -1 -13 4t-5 13q-1 8 4 13t13 5q31 1 67 2q31 1 71 1.5t83 0.5q54 0 109 -1.5t98 -6t69 -12 t23 -19.5q-7 -28 -26.5 -70.5t-47.5 -93.5l-62 -109l-72 -118l109 -3q7 0 12 -5t5 -13q-1 -7 -6 -12t-12 -5l-129 4l-98 -153l-87 -131l-63 -93l-24 -35q-5 -6 -11.5 -7.5t-12.5 3.5q-6 4 -7.5 11t2.5 13l22 33l60 88l84 125l94 147z" />
<glyph unicode="8" horiz-adv-x="650" d="M189 456q5 5 12 4.5t12 -5.5t4.5 -12.5t-6.5 -12.5q-60 -51 -93.5 -112.5t-33.5 -129.5q0 -40 14 -71.5t39 -53t59 -33t74 -11.5q229 0 245 198q3 42 -13 75.5t-44.5 61t-65.5 52.5l-77 48q-42 22 -79 46t-64 54t-41 67.5t-10 85.5q21 213 267 213q44 0 82.5 -15 t67 -41.5t45.5 -63t17 -80.5q0 -73 -37 -135t-107 -120q-5 -5 -12.5 -4t-12.5 6t-4 12.5t7 12.5q63 54 97 108t34 120q0 37 -14 67.5t-38 52t-56.5 33.5t-68.5 12q-109 0 -166.5 -43.5t-65.5 -137.5q-4 -42 9 -74t37 -58t57.5 -47t70.5 -40q45 -24 86.5 -52t72 -61.5 t47.5 -73t14 -84.5q-11 -112 -80.5 -171t-199.5 -59q-47 0 -87.5 14t-70 40.5t-46 64t-16.5 84.5q0 80 36.5 144t102.5 125z" />
<glyph unicode="9" horiz-adv-x="642" d="M590 768q-2 -7 -8.5 -10t-13.5 -1t-10.5 8t-1.5 13q5 10 -5 24.5t-24 27.5q-28 26 -70.5 41.5t-84.5 15.5q-63 0 -116 -24t-91 -66t-59 -99.5t-21 -125.5q0 -47 14.5 -85t40.5 -64.5t62.5 -41t81.5 -14.5q38 0 73 25.5t65 63t54 82t41 82.5t26 64l9 25q2 6 8 8t12 0.5 t10.5 -5.5t3.5 -11l-6 -37q-5 -36 -18.5 -96.5t-38 -140t-62 -166t-91 -174.5t-125.5 -165q-5 -6 -13 -6q-7 0 -12 5t-5.5 12t4.5 12q67 72 117 153t86.5 161.5t60.5 156t39 135.5q-20 -38 -45.5 -77t-55.5 -70.5t-64.5 -51.5t-72.5 -20q-52 0 -95 17.5t-74 49t-48 75.5 t-17 98q0 75 24 139t67 111t102 73.5t129 26.5q49 0 97.5 -18.5t81.5 -47.5q47 -44 39 -88z" />
<glyph unicode=":" horiz-adv-x="224" d="M66 -17q-7 2 -11.5 7.5t-3.5 12.5q2 8 7.5 12t12.5 3l31 -4q7 -2 11.5 -7.5t3.5 -12.5q-2 -8 -7.5 -12t-12.5 -3zM122 396q-7 2 -11.5 7.5t-3.5 12.5q2 8 7.5 12t12.5 3l31 -4q7 -2 11.5 -7.5t3.5 -12.5q-2 -8 -7.5 -12t-12.5 -3z" />
<glyph unicode=";" horiz-adv-x="247" d="M145 396q-7 2 -11.5 7.5t-3.5 12.5q2 8 7.5 12t12.5 3l31 -4q7 -2 11.5 -7.5t3.5 -12.5q-2 -8 -7.5 -12t-12.5 -3zM107 11q-7 2 -10.5 8t-1.5 13q2 8 8 11.5t13 1.5q20 -5 32 -19.5t10 -35.5q-2 -16 -10 -31.5t-19.5 -29.5t-24.5 -25.5t-25 -20.5q-6 -5 -13 -3.5t-12 6.5 q-5 6 -3.5 13t7.5 12q9 7 19.5 16t20.5 20t17 23t8 24q0 8 -4 11.5t-12 5.5z" />
<glyph unicode="&#x3c;" horiz-adv-x="781" d="M708 570q7 2 13.5 -1t8.5 -10t-1 -13.5t-10 -8.5l-27 -9l-73 -26l-101 -38l-116 -44l-116 -47q-57 -24 -101.5 -45t-71.5 -38.5t-27 -28.5t26 -26t67.5 -32t94.5 -35l110 -37q56 -18 110 -33l94 -28l68 -19l26 -7q16 -5 13 -22q-5 -15 -22 -12l-27 8l-70 20l-100 30 q-56 17 -114 36.5t-114 40.5t-99.5 41.5t-70.5 39t-27 34.5t28 37.5t74 46t104.5 51t120.5 51.5l121 48l105 39l76 27z" />
<glyph unicode="=" d="M68 98q-16 0 -18 17q0 7 5 12t12 5l438 3q8 1 13 -4t5 -13t-5 -13t-13 -5zM68 300q-16 0 -18 17q0 7 5 12t12 5l438 3q8 1 13 -4t5 -13t-5 -13t-13 -5z" />
<glyph unicode="&#x3e;" horiz-adv-x="781" d="M73 12q-7 -2 -13.5 0.5t-8.5 10.5q-2 7 1 13.5t10 8.5l28 9l72 26l102 37l116 45l116 46q56 24 100.5 45.5t71.5 39t27 28.5t-26 26t-67.5 32t-95.5 35l-109 37q-56 18 -109 33l-96 28l-67 19l-26 7q-8 2 -11.5 8t-1.5 13q5 16 22 13l27 -8l71 -20l99 -30 q56 -17 114 -36.5t114 -40.5t99.5 -41t70.5 -39t27 -35t-28 -37.5t-74 -46t-105 -51t-121 -51.5l-120 -48l-106 -39l-74 -27z" />
<glyph unicode="?" d="M112 621q6 -5 7 -12t-4 -13q-5 -5 -12 -6.5t-13 3.5q-19 15 -29.5 44t-10.5 64q0 48 16 88.5t46 70t73 46t96 16.5q57 0 102 -18.5t76 -51.5t47.5 -79t16.5 -101q0 -62 -17.5 -111t-48 -90t-71.5 -76t-88 -68q-34 -24 -59 -43.5t-31 -34.5q-7 -14 31 -28q15 -7 10 -23 q-7 -15 -23 -10q-38 16 -48.5 34t-1.5 41q9 21 36.5 43.5t64.5 48.5q45 32 83.5 64t67 69.5t44.5 82t16 101.5q0 98 -52.5 156.5t-154.5 58.5q-45 0 -81.5 -14t-62 -38.5t-39 -58.5t-13.5 -75q0 -27 7 -48.5t20 -31.5zM174 -14q-8 1 -12.5 6.5t-3.5 12.5q1 8 6.5 12.5 t12.5 3.5l40 -5q7 -1 11.5 -6t3.5 -13t-6 -12.5t-13 -2.5z" />
<glyph unicode="@" horiz-adv-x="827" d="M558 419q-2 -7 -8.5 -10t-13.5 -1t-10 8.5t-1 13.5q3 15 -2 26.5t-15.5 20t-25 13t-29.5 5.5q-42 0 -81.5 -13t-70 -39t-49 -66.5t-18.5 -94.5q0 -33 9 -63t27 -53.5t44.5 -37.5t60.5 -14q26 0 49 18.5t43.5 48t37.5 66t30 73.5q8 32 16 60.5t15 49.5l12 36l4 13 q2 6 8 7.5t12 0t10.5 -6.5t3.5 -11l-4 -15q-3 -14 -10 -38l-16 -54q-10 -31 -23 -64q-10 -38 -17 -74t-7 -62q0 -20 5 -31.5t16 -12.5q40 3 73.5 28t57.5 63.5t37.5 86.5t13.5 96q0 60 -23 108t-62 81.5t-91.5 52t-111.5 18.5q-78 0 -145.5 -27t-117 -74t-78 -111.5 t-28.5 -139.5q0 -61 16.5 -123t50.5 -112.5t85.5 -84t120.5 -37.5q84 -3 143.5 12.5t97.5 36t56 38.5l18 17q5 5 12 6t12 -4q6 -5 6.5 -12.5t-4.5 -12.5q-32 -33 -80 -59q-42 -22 -106 -40t-155 -16q-52 0 -95 17t-77 46t-59.5 67.5t-42.5 82t-25.5 89.5t-8.5 90 q0 82 31 152.5t85 122.5t128 81.5t160 29.5q67 0 125.5 -21.5t102.5 -60t69.5 -93t25.5 -120.5q0 -53 -16 -108t-44.5 -100t-68.5 -73t-89 -27q-32 1 -40.5 32t-5.5 76q-28 -48 -62 -80.5t-76 -32.5q-41 0 -73.5 17t-55.5 45t-35 64.5t-12 76.5q0 63 21.5 109.5t57.5 77.5 t82 46t95 15q21 -1 40.5 -9t34.5 -20.5t23.5 -30.5t6.5 -39q0 -6 -2 -12z" />
<glyph unicode="A" horiz-adv-x="661" d="M154 394q-17 2 -17 19q1 8 6.5 12.5t12.5 3.5l68 -6l74 177q37 86 72 154.5t65.5 110t51.5 41.5t35 -45.5t23 -118.5t13.5 -164t5.5 -182l30 -2q7 -1 12 -6t4 -13q-1 -7 -6 -12t-13 -4l-27 2q0 -28 0.5 -54t0.5 -52q0 -50 -0.5 -93.5t-1 -75t-1.5 -50.5v-18q-1 -8 -6 -13 t-12 -4q-8 0 -13 5t-4 13l1 29q0 28 1 75.5t1.5 109.5t0.5 130l-286 23l-61 -164l-52 -141l-35 -100q-13 -38 -13 -39q-2 -7 -8.5 -10t-13.5 -1q-16 7 -11 23l13 37l34 97l50 139l62 162zM483 861q-16 0 -41 -37t-55 -98t-63 -140l-66 -165l273 -22q0 85 -3 168t-8.5 148 t-14.5 105.5t-22 40.5z" />
<glyph unicode="B" horiz-adv-x="694" d="M103 822q-7 -2 -13 1.5t-8 10.5t1.5 13t11.5 8q62 17 138 30.5t150 13.5q47 0 92.5 -8.5t81.5 -29.5t58 -57t22 -92q0 -39 -10 -76t-28 -68.5t-42 -55t-52 -34.5q29 -9 54.5 -23t44 -35.5t29.5 -50.5t11 -67q0 -81 -35 -138.5t-91 -94t-127 -54t-142 -17.5q-46 0 -93 6 t-92 17q-16 4 -13 21q2 7 8 11t13 2q89 -21 178 -21q62 0 126 14.5t116 46t85 81.5t33 122q0 39 -13.5 66t-36 45.5t-52.5 29.5t-62 16q-32 -9 -62.5 -12t-58.5 -3q-45 0 -73.5 4.5t-29.5 4.5q-6 2 -9 7t-3 10q0 6 3 11.5t9 6.5l12 2q11 2 29.5 4t44 4t54.5 2q20 0 40.5 -1 t41.5 -4q32 7 60 26.5t50 48t34.5 65.5t12.5 79q0 47 -18.5 76.5t-49 47t-69 24t-77.5 6.5q-72 0 -147.5 -13t-136.5 -29zM169 796q1 8 6.5 12.5t12.5 3.5q8 -1 12.5 -6t3.5 -13l-70 -691q-1 -8 -6.5 -12.5t-12.5 -3.5q-8 1 -12.5 6.5t-3.5 12.5z" />
<glyph unicode="C" horiz-adv-x="761" d="M471 873q-95 0 -167 -42.5t-121 -113t-73.5 -162.5t-24.5 -191q0 -70 16 -132t50 -108t87 -72.5t127 -26.5q63 0 135.5 21t150.5 63q6 4 13 1.5t11 -8.5q7 -16 -8 -24q-82 -45 -159 -66.5t-145 -21.5q-81 0 -140.5 30t-97.5 81t-56.5 119.5t-18.5 145.5q0 108 28 206 t81.5 172.5t132 118.5t179.5 44q43 2 84.5 -4t75 -22t55 -44.5t24.5 -73.5q1 -25 -4 -45t-11.5 -34t-12.5 -23l-8 -12q-4 -6 -11 -8t-13 2t-8 11t2 13q33 53 31 95q0 36 -19.5 58t-49.5 34t-66 15.5t-69 3.5z" />
<glyph unicode="D" horiz-adv-x="812" d="M137 810q-7 -3 -14 -0.5t-10 9.5q-3 6 -0.5 13t9.5 10q66 32 129.5 47t123.5 15q84 0 155 -28.5t122.5 -79.5t80.5 -121.5t29 -154.5q0 -136 -31.5 -235.5t-89.5 -164.5t-140 -96.5t-183 -31.5q-59 0 -121.5 7t-131.5 18q-7 1 -11.5 6.5t-2.5 13.5q1 7 6.5 11.5t13.5 2.5 q67 -11 128.5 -18t118.5 -7q94 0 169.5 29t129 90t82 154t28.5 221q0 76 -26 140t-72 110.5t-109.5 72.5t-139.5 26q-57 0 -118 -14.5t-125 -44.5zM221 793q1 7 6.5 11.5t13.5 3.5q7 -1 11.5 -6t3.5 -13l-79 -700q-1 -7 -6.5 -11.5t-12.5 -3.5q-8 1 -12.5 6t-3.5 13z" />
<glyph unicode="E" horiz-adv-x="771" d="M69 461q-16 0 -18 17q-1 8 4 13t13 5l47 3l20 95l20 89l19 81l17 69l-91 -4q-8 -1 -13 4t-5 12q-1 8 4 13t12 6l102 5q5 23 9 37t4 15q2 7 8 10.5t14 1.5q7 -2 10.5 -8t1.5 -13q0 -1 -3 -12l-8 -29l466 23q8 1 13 -4t5 -12q1 -8 -4 -13t-12 -6l-476 -24l-16 -67l-19 -80 l-21 -90l-21 -97l376 22q8 0 13 -4.5t5 -12.5q1 -8 -4 -13t-12 -5l-386 -23q-10 -49 -19 -97.5t-15.5 -91.5t-10.5 -79.5t-4 -62.5q0 -58 39 -80.5t115 -25.5q38 -2 82.5 2t90.5 13t92 23t87 31q16 5 23 -10q2 -7 -0.5 -13.5t-9.5 -8.5q-76 -31 -160.5 -52.5t-162.5 -21.5 q-11 0 -22 0.5t-22 1.5q-87 4 -136.5 35.5t-49.5 101.5q0 28 3.5 65t10 80t15.5 91l19 97z" />
<glyph unicode="F" horiz-adv-x="749" d="M74 485q-8 0 -13 5t-5 12q-1 8 4 13t13 5l38 1l39 312l-68 -2q-16 0 -18 17q0 7 5 12.5t12 5.5l73 2l7 57q1 7 6.5 11.5t12.5 3.5q8 -1 12.5 -6.5t2.5 -12.5l-6 -51l491 18q17 0 19 -17q0 -8 -5 -13t-12 -5l-498 -18l-37 -313l324 11q7 1 12 -4t6 -13q0 -7 -5 -12t-12 -6 l-330 -11l-56 -468q-1 -7 -6.5 -11.5t-12.5 -3.5q-8 1 -12.5 6.5t-3.5 13.5l56 462z" />
<glyph unicode="G" horiz-adv-x="976" d="M514 401q-8 0 -13 5.5t-4 12.5q0 8 5 12.5t13 4.5q66 -3 124 -3q59 0 108 2t84 4q41 3 75 6q8 1 13 -3.5t6 -12.5t-3.5 -13t-11.5 -6q-1 0 -47.5 -4t-123.5 -6l-10 -54l-17 -91l-22 -121l-27 -143q-2 -7 -7.5 -11.5t-13.5 -2.5q-16 4 -14 20q6 34 12.5 66t11.5 63 q-17 -25 -39.5 -47.5t-51.5 -39.5q-36 -22 -76 -32.5t-84 -12.5q-180 -2 -265.5 87.5t-85.5 255.5q0 110 32.5 213t93 183.5t146.5 129t192 48.5q46 0 91.5 -7t82 -27.5t59.5 -56t23 -92.5v-19q0 -9 -2 -19q-1 -7 -6.5 -11.5t-13.5 -3.5q-7 1 -11.5 6.5t-3.5 12.5 q1 9 1.5 17t0.5 16q0 49 -20 78.5t-51.5 45t-71 20.5t-78.5 5q-100 0 -179.5 -46.5t-135 -122.5t-85 -173.5t-29.5 -198.5q0 -150 75.5 -229t239.5 -77q40 2 75.5 11t67.5 29q36 23 62 53.5t42.5 62t24.5 61.5t9 51q0 9 6 13l10 53q4 22 7 36q-16 0 -32 -0.5t-33 -0.5 q-59 0 -125 3z" />
<glyph unicode="H" horiz-adv-x="723" d="M637 916q1 8 6.5 12t12.5 4q8 -1 12.5 -6.5t3.5 -13.5l-45 -432l14 1q8 0 13 -4.5t5 -12.5t-4.5 -13t-12.5 -5l-19 -1l-47 -451q-1 -8 -6.5 -12.5t-12.5 -3.5q-8 1 -12.5 6.5t-3.5 12.5l46 447l-455 -14l-46 -441q-1 -7 -6.5 -11.5t-13.5 -3.5q-7 1 -11.5 6t-3.5 13 l46 436h-24q-7 -1 -12 4t-6 13q0 7 5 12t12 6l28 1l47 442q1 8 6.5 12.5t12.5 3.5q8 -1 12.5 -6.5t3.5 -12.5l-46 -438l455 13z" />
<glyph unicode="I" horiz-adv-x="621" d="M68 8q-8 -1 -13 4t-5 13q0 16 17 18l171 6l98 805l-181 -2q-8 0 -12.5 5t-4.5 12q-1 8 4 13t13 5l187 2q6 7 16 7q8 -2 12 -7l183 2q8 0 13 -4.5t5 -12.5t-5 -12.5t-13 -5.5l-182 -2l-98 -804l166 6q7 0 12.5 -5t5.5 -12q0 -8 -4.5 -13t-12.5 -5l-171 -6v-1 q-2 -7 -7 -11.5t-13 -3.5q-13 2 -15 15z" />
<glyph unicode="J" horiz-adv-x="761" d="M370 857q-8 0 -12.5 5t-4.5 13q0 7 4.5 12t12.5 5h236q2 6 7 10t12 3q12 0 16 -13h53q7 0 12 -5t5 -12q0 -8 -5 -13t-12 -5h-55l-6 -83q-4 -54 -9.5 -120.5t-12.5 -139.5l-14 -143q-7 -69 -14.5 -127.5t-15.5 -94.5q-9 -43 -38.5 -78.5t-70 -61t-87 -39.5t-90.5 -14 q-72 0 -132 33t-97 108q-3 7 -0.5 13.5t8.5 9.5q7 4 14 1.5t10 -9.5q32 -66 83.5 -93.5t113.5 -27.5q38 0 79 12t76.5 34t62 52t33.5 67q8 35 15.5 92.5t14.5 125.5l14 140q7 73 12.5 139.5t9.5 120t6 83.5h-234z" />
<glyph unicode="K" horiz-adv-x="754" d="M170 873q2 7 8 10.5t14 1.5q7 -2 10.5 -8t1.5 -13q0 -1 -9.5 -37t-22.5 -95l-30 -134q-16 -75 -29.5 -152t-22.5 -150.5t-9 -129.5q0 -53 10 -84t33 -31q28 0 66 35.5t81.5 94t90.5 133.5l90 153l84 153l69 134l47 94q18 36 18 37q3 6 10 8.5t13 -0.5q7 -3 9.5 -10 t-0.5 -13q0 -1 -21 -42l-55 -108l-80 -151l-96 -169q13 3 20 -10l157 -350q3 -7 0.5 -13.5t-8.5 -9.5q-7 -3 -14 -0.5t-9 9.5l-158 350q-1 0 -1 2q-43 -73 -88 -140t-87 -118.5t-79 -82t-66 -30.5q-37 0 -52 45.5t-15 117.5q0 62 9 138.5t22 154.5t29 152l29 131 q13 57 22 92z" />
<glyph unicode="L" horiz-adv-x="634" d="M168 890q5 16 21 13q16 -5 13 -22q0 -1 -9.5 -39t-23.5 -100t-30 -140t-30 -159t-23.5 -156.5t-9.5 -132.5q0 -47 8 -76t26 -33q31 -6 64 -8t67 -2q60 0 117.5 5.5t102.5 12.5t73 13l28 5q7 2 13 -1.5t8 -11.5q2 -7 -2 -13t-12 -8q-48 -10 -103 -18q-47 -7 -105 -13 t-120 -6q-35 0 -70.5 2.5t-67.5 8.5q-29 6 -41 49t-12 109q0 63 8.5 141t22 158t28.5 155.5t29 134.5l22 96z" />
<glyph unicode="M" horiz-adv-x="890" d="M795 783l-50 -105l-61 -122l-68 -124t-68 -109t-63 -78.5t-52 -31.5q-29 -2 -54.5 23.5t-47.5 68.5t-40.5 99t-33.5 116t-26.5 119.5t-19.5 108.5l-125 -726q-2 -7 -7.5 -11.5t-12.5 -2.5q-8 2 -12 7.5t-3 12.5l143 827q-1 6 -1 10q0 5 -1 9t-1 7q-1 7 3.5 12.5t12.5 6.5 q7 1 12.5 -3.5t6.5 -11.5v-5q0 -2 0.5 -4.5t0.5 -5.5q5 -5 3 -12l-1 -2q5 -26 13.5 -80.5t21 -122t29 -138.5t37 -130t46 -96.5t54.5 -37.5q18 0 44 27.5t56 72t62 101.5l62 118l58 117l48 102l32 73l13 28q3 6 8.5 7.5t11.5 0t10 -6t4 -10.5l-75 -888q0 -8 -5.5 -12.5 t-13.5 -3.5q-16 2 -16 19z" />
<glyph unicode="N" horiz-adv-x="749" d="M134 836q-3 17 12 22q1 0 2 0.5t2 0.5l1 6q3 17 20 15q7 -1 11.5 -6.5t3.5 -12.5l-7 -56l39 -125q19 -63 42 -128q34 -97 70 -188.5t70.5 -162t66 -113t56.5 -42.5q17 0 32.5 36t28.5 95t24 134t20 153.5t15.5 154t11 135t6.5 95.5t2 37q1 7 6 12t12 4q8 0 13 -5t4 -13 q0 -1 -2 -39t-6.5 -100t-12 -141.5t-17.5 -162t-23 -162t-29.5 -141t-36.5 -99.5t-44 -38q-32 0 -69.5 46.5t-77 122t-79 172.5t-74.5 199q-16 45 -30 89l-28 88l-83 -702q-2 -7 -7 -11.5t-13 -3.5t-12 6.5t-3 13.5l92 782z" />
<glyph unicode="O" horiz-adv-x="857" d="M154 708q4 6 11 8t13 -2q6 -5 8 -12t-2 -13q-48 -75 -72 -156t-26 -159q-2 -63 12 -126t45 -113t81 -83t120 -36q113 -3 193 38t131 111.5t75.5 164t27.5 195.5q3 61 -8.5 123t-40 113t-76.5 84.5t-119 36.5q-60 3 -111.5 -7.5t-90.5 -35.5t-65 -66t-35 -99 q-1 -7 -6.5 -11.5t-12.5 -2.5q-8 1 -12.5 6.5t-2.5 12.5q12 65 40.5 111t71.5 75.5t100 42t125 9.5q80 -3 134.5 -39.5t87.5 -92t46 -124.5t10 -137q-3 -109 -30.5 -209t-83.5 -175t-142 -118.5t-207 -40.5q-78 3 -134 38.5t-91.5 91t-52 125t-14.5 139.5q2 83 27.5 168.5 t75.5 164.5z" />
<glyph unicode="P" horiz-adv-x="737" d="M71 854q-8 -1 -13.5 3.5t-6.5 12.5q-1 7 3.5 12.5t12.5 6.5q62 8 123.5 12.5t121.5 4.5q40 0 83.5 -3t85 -12t79 -25t66 -41t45 -61t16.5 -85q0 -71 -19 -125t-50.5 -93.5t-71 -65.5t-81.5 -41t-82.5 -21.5t-72.5 -6.5q-20 0 -35 1t-26 2h-7q-7 1 -12 6t-4 13t6 12.5 t13 3.5h6q10 -1 24 -1.5t31 -0.5q28 0 65 5.5t75.5 18.5t75.5 36t66 58t46.5 83.5t17.5 112.5q0 44 -15.5 75.5t-41.5 53t-60 34.5t-72 20t-76.5 9.5t-73.5 2.5q-59 0 -120 -4.5t-122 -12.5zM191 795q1 8 6.5 12t13.5 3q7 -1 11.5 -6t3.5 -13l-87 -783q-2 -7 -7 -11.5 t-13 -3.5q-7 1 -11.5 6t-3.5 13z" />
<glyph unicode="Q" horiz-adv-x="888" d="M448 211q-14 9 -6 24q4 6 11 7.5t13 -1.5l175 -106q31 35 54 81.5t38.5 99t25 107.5t12.5 106q2 62 -9 125t-39.5 115t-76.5 84.5t-120 32.5q-10 1 -19 1h-18q-58 0 -108.5 -13.5t-87 -42t-58 -71.5t-23.5 -103v-24q0 -8 -4.5 -13t-12.5 -5q-8 -1 -13 4t-5 13v26 q2 67 26 116.5t65.5 82.5t98 49t122.5 16h18q10 0 20 -1q80 -5 134 -40t87 -89.5t46.5 -123t11.5 -140.5q-4 -53 -13.5 -110t-26 -111.5t-40 -103.5t-55.5 -86l158 -95q6 -4 8 -11t-2 -13t-11 -8t-13 2l-164 98q-53 -52 -127 -80t-177 -25q-75 1 -131 30.5t-92.5 78.5 t-54 112.5t-14.5 133.5q2 72 21.5 151.5t57.5 161.5q3 6 10 8.5t14 -0.5q6 -3 8.5 -9.5t-0.5 -13.5q-36 -78 -55 -154t-21 -145q-1 -8 -1.5 -16.5t-0.5 -16.5q0 -58 19 -109.5t53.5 -90.5t82.5 -61.5t105 -24.5q92 -2 158 21t114 68z" />
<glyph unicode="R" horiz-adv-x="769" d="M71 830q-7 -2 -12.5 2.5t-7.5 11.5t2 13t12 7q86 16 166 25t152 9q65 0 125.5 -10.5t107 -37t75 -70t28.5 -109.5q0 -12 -1 -24t-3 -26q-12 -79 -57.5 -137.5t-110.5 -87.5q-33 -15 -68.5 -22.5t-70.5 -8.5q20 -24 42 -54l45 -64l87 -117q47 -62 102 -119q5 -5 5 -12 q0 -8 -5 -13t-13 -5q-7 0 -12 5q-57 58 -104 121l-88 120l-54 75q-25 35 -48 59q-2 1 -2.5 2t-2.5 3q-14 0 -28 3q-17 2 -33 6.5t-31 9.5q-9 3 -11.5 12.5t5.5 16.5q20 20 45 20q31 0 68 -34q40 -2 80 4.5t77 23.5q59 26 95.5 77t52.5 122q3 23 3 42q0 58 -27 95.5 t-69.5 59.5t-96 30.5t-107.5 8.5q-70 0 -148.5 -9t-163.5 -24zM199 783q1 8 6.5 12.5t13.5 3.5q7 -1 11.5 -6.5t3.5 -12.5l-87 -757q-2 -8 -7 -12.5t-13 -3.5t-12 6.5t-3 13.5z" />
<glyph unicode="S" horiz-adv-x="764" d="M701 682q-7 -15 -23 -10q-6 3 -9 9.5t0 13.5q10 24 10 50q0 38 -22.5 69t-63.5 48q-22 8 -49 13t-61 6q-72 2 -127 -8t-97 -35q-40 -25 -65.5 -65.5t-38.5 -100.5q-9 -44 8.5 -75t51.5 -53.5t80.5 -38.5t95.5 -31q51 -16 99.5 -33t87 -40.5t62 -56t23.5 -79.5 q0 -42 -14 -80.5t-35.5 -70.5t-48.5 -56t-54 -37q-48 -23 -95 -27.5t-95 -4.5q-41 0 -82.5 14.5t-78 38t-65 53.5t-43.5 61q-3 7 -0.5 13.5t9.5 10.5q6 3 13 0.5t10 -9.5q13 -27 38 -53.5t57.5 -47.5t69.5 -33.5t73 -12.5q42 -2 87 3t87 25q22 11 45 31t42 47.5t31 60.5 t12 69q0 39 -21.5 67t-56 48.5t-78.5 35.5t-90 29q-49 15 -96.5 32t-84.5 39.5t-59.5 53.5t-22.5 75q0 37 10 71.5t27 64t39.5 53.5t47.5 39q46 28 106.5 39t136.5 9q37 -1 67 -6.5t55 -15.5q51 -22 79.5 -61.5t28.5 -87.5q0 -31 -13 -63z" />
<glyph unicode="T" horiz-adv-x="800" d="M365 792q1 8 6.5 12.5t12.5 3.5q8 -2 12.5 -7t3.5 -13l-83 -761q-1 -7 -6.5 -11.5t-12.5 -3.5q-8 1 -12.5 6t-3.5 13zM68 847q-8 0 -13 5t-5 12q0 8 5 13t12 5l665 4q8 0 13 -4.5t5 -12.5t-5 -13t-12 -5z" />
<glyph unicode="U" horiz-adv-x="808" d="M168 878q2 7 8.5 10t13.5 1t10 -8.5t1 -13.5l-9 -29q-9 -29 -22 -78l-29 -112q-16 -63 -29 -132.5t-22 -139.5t-9 -132q0 -46 6 -85.5t19.5 -68.5t36 -45.5t55.5 -16.5q80 -1 144 25.5t114.5 71.5t89 104.5t67 125.5t48 134.5t31.5 130.5l31 254q1 7 6.5 10t12 2.5 t11.5 -4.5t5 -10l-1 -20q-1 -20 -4.5 -54t-9.5 -80t-16 -99l-74 -602q-1 -7 -6.5 -11.5t-13.5 -3.5q-7 1 -11.5 6.5t-3.5 12.5l45 367q-29 -77 -70 -148.5t-97.5 -126.5t-130 -88t-167.5 -32q-42 1 -70.5 21t-45.5 55t-24.5 82t-7.5 101q0 65 8.5 136.5t21.5 141t28.5 132.5 t28.5 110.5t22 76.5z" />
<glyph unicode="V" horiz-adv-x="700" d="M50 882q0 8 4.5 13t12.5 5t13 -5t5 -12q0 -1 1 -37.5t3.5 -96t7 -135.5t11.5 -155t16.5 -154.5t22 -135t28 -95.5t35.5 -36q35 0 71 38t71 101t68.5 143t62.5 163.5t53 163.5l42 143l27 102l10 38q2 8 8 11.5t13 1.5t11 -8t2 -13q0 -1 -10.5 -41t-29.5 -105l-45 -149 q-26 -83 -57.5 -170t-68 -170t-75.5 -148t-79.5 -105t-80.5 -40q-26 0 -46.5 38t-36.5 100.5t-27 142t-19 162.5t-12.5 162.5t-7 142.5t-3.5 101t-1 39z" />
<glyph unicode="W" horiz-adv-x="1043" d="M52 840q0 7 5 12t13 5q7 0 12 -5t5 -12q0 -71 -1 -141.5t-1 -148.5q0 -61 1 -123.5t3.5 -120.5t7 -109t11.5 -88.5t17 -59.5t24 -23q16 -1 41 26t54 71.5t59.5 101.5t59 116.5t52.5 116t39 100.5q-1 11 -1 20v19v16q0 8 1 15q2 23 9.5 36.5t21.5 13.5q20 0 25 -22 q2 -11 -1 -30t-11 -45q-2 -6 -4 -13t-5 -15q1 -4 1 -14q3 -36 10 -86.5t17.5 -106t23.5 -109.5t28 -97.5t31.5 -70t32.5 -26.5q12 0 25 15.5t25 36.5t22 43.5t17 36.5q26 56 53.5 125.5t53 142.5t48.5 145.5t40.5 135.5t28 111t12.5 72q0 7 5.5 12t12.5 4q17 -2 17 -19 q-2 -25 -13 -73.5t-28.5 -112.5t-40.5 -137.5t-49 -148t-53.5 -145t-54.5 -127.5l-22 -46q-13 -27 -29 -51.5t-34.5 -41.5t-38.5 -17q-19 0 -38 23t-36.5 61t-32.5 87.5t-27.5 102t-21 104.5t-13.5 96q-20 -49 -45.5 -104.5t-54 -110t-58.5 -104t-58.5 -87.5t-53 -60 t-43.5 -21q-21 1 -37 26t-27 68t-17.5 99.5t-10 120.5t-5 132.5t-1.5 133.5q0 71 1 137.5t1 131.5z" />
<glyph unicode="X" horiz-adv-x="758" d="M677 924q5 5 12 5q8 0 13 -5t5 -12t-5 -12q-23 -25 -58 -70l-76 -104l-87 -128l-93 -138l90 -165l77 -143l55 -100l21 -38q3 -6 1 -13t-8 -10q-7 -4 -13.5 -2t-10.5 9l-20 36l-52 97l-75 137l-87 159l-106 -163l-90 -140l-63 -98l-24 -38q-4 -6 -11 -8t-13 2t-8 11t3 14 l24 39l66 102l94 146l109 168l-71 130l-64 120l-55 103l-39 75q-3 7 -1 14t9 10q16 7 24 -8l37 -72l52 -98l63 -116l67 -125l91 135l86 124l74 102q34 44 57 68z" />
<glyph unicode="Y" horiz-adv-x="721" d="M134 919q5 6 12 7t13 -4q5 -5 6 -12t-4 -13q-17 -21 -31 -50.5t-24 -64t-15.5 -72t-5.5 -75.5q0 -48 10.5 -93.5t34 -80.5t61.5 -56.5t92 -21.5q82 0 149.5 37.5t113.5 103.5q43 61 66 141t23 171v26q0 13 -2 27q0 17 17 19q7 1 12.5 -4t5.5 -12q3 -28 3 -56 q0 -97 -25 -181.5t-71 -150.5q-52 -73 -126.5 -114.5t-165.5 -41.5q-62 0 -106 24.5t-72.5 64.5t-41.5 91.5t-13 106.5q0 41 6 81.5t17.5 78t27 69.5t33.5 55zM271 311q1 8 6.5 12t13.5 3q7 -2 11.5 -7.5t2.5 -12.5l-52 -319q-2 -8 -7.5 -12.5t-13.5 -2.5q-16 4 -14 20z" />
<glyph unicode="Z" horiz-adv-x="735" d="M130 849q-8 0 -13 5t-5 12q0 8 5 13t12 5l538 9q11 0 16 -11t-3 -19l-25 -27l-65 -72l-93 -103l-107 -123l-107 -132q-53 -66 -95.5 -126t-70 -109.5t-31.5 -80.5q9 -18 31.5 -28t50.5 -14.5t57 -5.5t51 -1q44 0 95.5 5t98.5 14.5t84.5 23t53.5 29.5q5 5 12 5t12 -5 t5 -13q0 -7 -5 -12q-20 -19 -60 -34t-90 -25.5t-104.5 -16.5t-102.5 -6q-16 0 -39.5 0.5t-49 3t-50.5 8t-44.5 15.5t-30.5 25t-10 36q4 29 26 71.5t56 94.5t78 110l91 116l96 114l92 106l80 88l57 63z" />
<glyph unicode="[" horiz-adv-x="393" d="M326 985q7 0 12 -5t5 -12q0 -8 -5 -13t-12 -5h-174q-16 -151 -24 -300l-17 -297q-5 -102 -10.5 -202t-13.5 -201l188 2q8 0 13 -5t5 -12q0 -8 -5 -13t-12 -5l-207 -2q-8 -1 -13.5 5t-4.5 13q8 107 14 211.5t11 210.5q8 153 17 305t26 310q1 5 6 10t11 5h190z" />
<glyph unicode="\" horiz-adv-x="758" d="M81 911q26 -28 67 -83l90 -124l102 -148l105 -159l99 -151l82 -129l57 -89l21 -34q5 -7 3 -14t-8 -11t-13 -2t-11 8l-21 33l-58 90l-82 128l-98 150l-104 158l-102 148l-88 124q-40 53 -66 81q-5 5 -5 12t5 12t12 5q8 0 13 -5z" />
<glyph unicode="]" horiz-adv-x="393" d="M68 -86q-8 0 -13 5t-5 13q0 7 5 12t13 5h174q16 151 24 299l17 299l10 201q5 101 13 201l-188 -1q-8 -1 -12.5 4t-5.5 13q0 7 5 12t13 6l207 2q8 0 13 -6t5 -13q-9 -107 -14.5 -211t-10.5 -210q-8 -153 -17 -305.5t-26 -309.5q-1 -6 -6.5 -11t-10.5 -5h-190z" />
<glyph unicode="^" horiz-adv-x="434" d="M79 699q-6 -5 -13 -4t-12 7q-4 6 -3 13t7 12l76 58l50 37l35 27q5 3 12 3t11 -5l12 -11l32 -30l43 -42l48 -43q6 -5 6.5 -12t-4.5 -12q-5 -6 -12 -6.5t-13 4.5l-38 34l-35 33l-31 29l-21 21l-51 -38z" />
<glyph unicode="_" horiz-adv-x="690" d="M623 -5q7 0 12 -4.5t5 -12.5q0 -7 -5 -12t-13 -5l-554 4q-8 0 -13 4.5t-5 12.5t5 13t13 5z" />
<glyph unicode="`" horiz-adv-x="363" d="M58 808q-6 5 -7.5 12t3.5 12q4 6 11 7.5t13 -2.5l13 -9l33 -24l45 -29l49 -30q24 -14 44.5 -23t32.5 -9q8 0 13 -5t5 -13q0 -7 -5 -12t-13 -5q-11 0 -27 5.5t-34.5 14.5t-38.5 21l-40 24q-46 29 -97 65z" />
<glyph unicode="a" horiz-adv-x="643" d="M524 304q-20 -56 -47 -112t-61.5 -101t-76 -73.5t-91.5 -30.5q-48 -2 -84.5 15.5t-60.5 48.5t-37 74t-15 92q-1 8 -1 14v15q0 71 22 137t63 117t99.5 81.5t130.5 30.5q27 0 54.5 -9.5t49.5 -27t35.5 -42t13.5 -53.5q0 -8 -5.5 -12.5t-13.5 -3.5q-7 0 -12 5.5t-4 12.5 q0 24 -11.5 42t-30.5 29.5t-42.5 17.5t-46.5 6q-67 0 -118 -32.5t-85 -83.5t-50 -115t-13 -127q2 -42 12 -78.5t29 -63.5t48.5 -42t70.5 -13q42 2 77.5 26t65 62.5t53.5 87t43 99.5t33 99.5t22.5 86t13.5 61.5l4 23q1 6 7 8.5t12.5 1.5t11 -5t3.5 -10l-70 -542 q-1 -8 -6.5 -12.5t-12.5 -2.5q-17 2 -15 19z" />
<glyph unicode="b" horiz-adv-x="606" d="M138 857q1 7 6 11.5t13 3.5q7 0 11.5 -5.5t3.5 -13.5l-44 -424q16 35 36.5 66t46.5 53.5t57.5 35.5t70.5 13q56 0 97 -20.5t67.5 -55.5t39.5 -80.5t13 -96.5q0 -79 -24.5 -144.5t-68 -112t-102 -70.5t-126.5 -19q-25 2 -49.5 10.5t-43 23.5t-27.5 37t-3 50q2 7 7.5 11.5 t12.5 2.5q8 -2 12 -7.5t2 -13.5q-4 -20 3 -34.5t21.5 -24t32.5 -14t35 -6.5q61 -5 112.5 17t89.5 64t59.5 101.5t21.5 128.5q0 44 -10 83.5t-32 69.5t-56.5 47.5t-83.5 17.5q-52 0 -90.5 -28t-66 -73t-45 -100.5t-28.5 -110.5l-24 -224q-1 -6 -6.5 -9t-12 -2.5t-11.5 4 t-5 9.5v18q1 18 3.5 48.5t7 70t12.5 83.5z" />
<glyph unicode="c" horiz-adv-x="601" d="M548 412q-2 -8 -7.5 -12t-12.5 -2q-8 1 -12 6.5t-3 13.5q3 17 3 32q0 32 -12.5 57t-34 42.5t-50.5 26.5t-63 9q-59 0 -107 -23.5t-82.5 -65.5t-55 -99.5t-24.5 -126.5q-3 -53 8 -100.5t37.5 -82.5t67.5 -54t96 -16q30 2 59 12.5t54.5 25.5t45.5 33.5t30 37.5q3 6 10 8 t14 -2q6 -3 8 -10t-2 -13q-13 -23 -35.5 -44.5t-51.5 -38.5t-62 -28.5t-67 -15.5q-59 -3 -105.5 16.5t-78 55t-48 84t-16.5 105.5v14q0 7 1 15q4 76 28 139.5t63.5 110t93.5 72.5t119 26q43 0 78.5 -12.5t61.5 -35t40.5 -54.5t14.5 -72q0 -16 -3 -34z" />
<glyph unicode="d" horiz-adv-x="658" d="M502 241q-18 -53 -41 -98.5t-51.5 -79t-62 -53t-72.5 -19.5q-55 0 -97 19t-70.5 52.5t-43 79.5t-14.5 98q0 65 20.5 131t57.5 119.5t87 87.5t108 34q81 0 128 -39.5t64 -105.5q2 -7 -2 -13t-11 -8t-13 2t-8 11q-12 54 -52 86t-106 32q-51 0 -94.5 -31.5t-75.5 -81 t-50.5 -109t-18.5 -116.5q0 -45 12 -84.5t36 -68t59.5 -44.5t83.5 -16q52 0 92.5 40t71.5 104.5t53 145.5t37 165l43 389v1l1 1q1 6 6.5 9t11.5 2.5t11 -4t5 -10.5l-1 -31q-2 -31 -6.5 -82.5t-12.5 -118.5t-21 -140l-55 -491q-1 -7 -6.5 -11.5t-12.5 -3.5q-8 1 -12.5 6 t-3.5 13z" />
<glyph unicode="e" horiz-adv-x="622" d="M151 285q-8 1 -12.5 6t-3.5 13t6 12.5t13 3.5q24 -2 60.5 -4t78.5 -2q41 0 82.5 2.5t75.5 9.5t56.5 19t26.5 31q2 10 2.5 19.5t0.5 19.5q0 40 -14 71.5t-38.5 53t-59 32.5t-76.5 11q-67 0 -117 -31.5t-82.5 -80t-48.5 -106.5t-16 -112q0 -39 9 -80.5t29.5 -76t52.5 -56.5 t77 -22q57 0 97.5 14t67.5 31q32 20 53 45q5 6 12 7t13 -4q5 -5 6.5 -12t-3.5 -13q-25 -28 -61 -51q-31 -20 -76.5 -36t-108.5 -16q-53 0 -91.5 25t-63 64t-36.5 87t-12 94q0 60 18.5 124.5t55.5 118t93 88t132 34.5q49 0 90 -14t70.5 -40t46 -64t16.5 -85q0 -11 -1 -22.5 t-3 -22.5q-5 -28 -32.5 -45.5t-68.5 -27.5t-90 -14t-96 -4q-38 0 -71.5 2t-58.5 4z" />
<glyph unicode="f" horiz-adv-x="469" d="M67 529q-7 0 -12 4.5t-5 12.5t5 13t12 5h83q11 71 25.5 131.5t34.5 105.5t47.5 71.5t63.5 27.5q23 1 46.5 -2.5t45 -11t40.5 -19.5t31 -28q14 -18 19.5 -37t5.5 -39q0 -10 -1.5 -19t-3.5 -19q-2 -7 -8 -10.5t-13 -1.5q-8 2 -11.5 8t-1.5 13q4 12 4 28q0 32 -18 56 q-10 14 -25.5 23t-33.5 14.5t-37.5 7.5t-38.5 2q-27 -1 -48.5 -24t-37.5 -63t-28.5 -95t-21.5 -119h180q7 0 12 -5t5 -13t-5 -12.5t-12 -4.5h-185q-16 -124 -25.5 -255t-21.5 -259q-1 -8 -6.5 -12.5t-12.5 -3.5q-8 1 -12.5 6.5t-3.5 12.5q6 60 11 125l11 131q5 66 11 131 t14 124h-78z" />
<glyph unicode="g" horiz-adv-x="620" d="M508 461q-1 -7 -6.5 -11.5t-12.5 -3.5q-8 1 -12.5 6.5t-3.5 12.5q1 5 1 14q0 31 -16.5 50t-41.5 29.5t-53.5 14.5t-51.5 4q-17 0 -35 -6t-34 -16q-28 -17 -53.5 -49t-45 -74t-31.5 -91.5t-12 -100.5q0 -42 9 -79.5t26 -66.5q20 -32 54 -52.5t74 -20.5q48 0 86.5 33.5 t67.5 85t50 113.5t35 120t21.5 104t9.5 65q1 2 1 5t1 6q1 6 6.5 9t12 2t11.5 -5t4 -10v-6q-8 -65 -12.5 -129.5t-9.5 -127.5q-5 -81 -11 -157t-18.5 -142.5t-34 -121.5t-57 -94t-88 -60.5t-127.5 -21.5q-49 0 -80.5 8t-49.5 21t-24.5 29.5t-6.5 32.5q0 13 3 25t7 21 q4 11 9 20q3 7 10 9t14 -2q6 -4 8 -11t-2 -13q-2 -6 -5 -12q-2 -5 -4 -12.5t-2 -15.5q0 -11 5 -22.5t18.5 -21t37.5 -15.5t62 -6q66 0 112.5 20t78.5 56.5t51.5 87.5t31 113t17 133t10.5 147q-17 -54 -40.5 -107t-54 -95t-69 -67.5t-85.5 -25.5q-51 0 -91.5 24t-65.5 66 q-20 34 -30.5 75.5t-10.5 88.5q0 56 13.5 109.5t35.5 99.5t50.5 81.5t58.5 54.5q20 12 42.5 19.5t45.5 7.5q31 0 65.5 -6t64 -21t49 -40.5t19.5 -65.5v-9q0 -4 -1 -9z" />
<glyph unicode="h" horiz-adv-x="535" d="M134 873q1 7 6.5 11.5t12.5 4.5q8 -2 12.5 -7t3.5 -13l-48 -490q17 45 40 85t52.5 70t66.5 48t82 18q37 0 60.5 -25t37.5 -66.5t19.5 -94t5.5 -108.5q0 -58 -4 -114t-9.5 -100t-9.5 -72l-4 -27q-2 -7 -7.5 -11.5t-13.5 -2.5q-7 1 -11 7t-3 13l5 29q4 30 9.5 77t10 105 t4.5 116q0 47 -4 90t-14.5 76t-27.5 53t-44 20q-44 0 -79.5 -20.5t-63 -54.5t-48 -78.5t-35 -92t-23.5 -95t-15 -87.5l-12 -119v-2q-1 -6 -6.5 -9t-12 -2.5t-11.5 4t-5 10.5q0 15 2 33q2 16 4 38t6 48z" />
<glyph unicode="i" horiz-adv-x="225" d="M113 575q1 7 6 11.5t13 3.5q7 -1 11.5 -6.5t3.5 -12.5l-61 -551q-1 -8 -6 -12.5t-13 -3.5t-12.5 6.5t-3.5 13.5zM139 842q1 7 6.5 11.5t12.5 3.5q8 -1 12.5 -6.5t3.5 -12.5l-5 -35q-1 -8 -6.5 -12.5t-12.5 -2.5q-8 1 -12.5 6t-2.5 13z" />
<glyph unicode="j" horiz-adv-x="346" d="M-179 -90q1 7 6.5 12t13.5 4q7 -1 11.5 -6t3.5 -13q0 -32 6 -62t19.5 -52.5t35.5 -36t54 -13.5q56 0 90.5 22.5t55 60t30.5 86t17 100.5q4 31 10 84l12 116q7 61 13 124l11 114l8 84l3 33q1 8 6 12.5t13 3.5q7 -1 11.5 -6.5t3.5 -12.5l-3 -33l-8 -85l-11 -116 q-6 -63 -13 -124l-12 -115q-5 -53 -9 -83q-8 -62 -20.5 -115.5t-37 -93.5t-66 -64t-107.5 -27q-39 3 -67 19.5t-46 43.5t-26.5 62.5t-7.5 76.5zM260 843q1 8 6.5 12.5t13.5 3.5q7 -2 11.5 -7t3.5 -13l-5 -35q-1 -8 -6.5 -12t-12.5 -3q-8 1 -12 6.5t-3 12.5z" />
<glyph unicode="k" horiz-adv-x="548" d="M162 898q1 8 7 12t13 2q8 -1 12 -6.5t2 -13.5l-6 -28l-13 -77l-19 -111l-21 -130l-21 -139q-11 -70 -19.5 -133t-13.5 -114.5t-5 -82.5q0 -36 8 -38q9 0 19 6.5t19.5 16l19.5 20.5l17 21q28 32 60 73l63 84l62 86q30 44 54 83t41 71t23 51q2 7 8.5 10t13.5 1t10 -8.5 t1 -13.5q-6 -19 -21.5 -48.5t-37 -65.5t-48.5 -77l-57 -83q3 -2 5 -5l144 -236q5 -6 3 -13t-8 -11q-15 -8 -24 6l-141 229l-64 -84q-32 -40 -61 -72q-17 -20 -32.5 -35.5t-29.5 -26.5q-33 -27 -53 -24h-1q-11 2 -16 25.5t-5 63.5q0 43 5 100.5t12.5 122.5t17.5 134.5 t21 135.5l20 124l18 102l13 70z" />
<glyph unicode="l" horiz-adv-x="241" d="M155 871q2 7 7 11.5t13 3.5t12 -6.5t3 -12.5l-105 -845q-1 -7 -6.5 -11.5t-12.5 -3.5q-8 1 -12.5 6.5t-2.5 13.5z" />
<glyph unicode="m" horiz-adv-x="894" d="M112 590q1 8 6 12.5t13 3.5t12.5 -6.5t3.5 -12.5l-34 -315q18 58 42 116t53.5 104.5t64.5 75.5t75 29q41 0 67 -26.5t41 -69t21 -97t6 -110.5v-26q0 -12 -1 -24q19 60 43.5 123t55 114t66.5 83.5t77 32.5q36 0 59 -23.5t36.5 -61.5t19 -87.5t5.5 -101.5q0 -55 -4.5 -109 t-9.5 -97t-10 -69l-4 -27q-2 -8 -7.5 -12t-12.5 -2q-8 2 -12 7.5t-3 12.5l5 29q5 28 10.5 73t10 100.5t4.5 110.5q0 44 -4 84t-14 71t-26.5 49t-42.5 18q-30 0 -57 -23.5t-51.5 -61.5t-45 -87t-37.5 -100t-30.5 -100t-22.5 -87.5t-14 -62.5l-5 -24q-1 -6 -7 -8.5t-12.5 -1.5 t-11 5.5t-3.5 10.5v1q1 4 4.5 29.5t8 64.5t8 87.5t3.5 98.5q0 49 -4.5 95.5t-16 83t-31.5 58.5t-51 22q-32 0 -60 -23.5t-52.5 -62t-45 -88t-37.5 -101t-29.5 -100.5t-21 -88t-12.5 -63l-5 -24q-1 -6 -7 -8.5t-12 -1.5t-11 5t-4 10z" />
<glyph unicode="n" horiz-adv-x="622" d="M117 588q1 8 6 12.5t13 3.5q7 -1 11.5 -6.5t3.5 -12.5l-46 -406q16 43 37 91.5t45.5 96t52.5 90.5t59.5 75.5t65.5 52t71 19.5q40 0 66.5 -21.5t42 -58t21.5 -83.5t6 -98q0 -60 -6 -119.5t-13.5 -107t-14.5 -77.5l-6 -30q-5 -16 -21 -13q-8 2 -11.5 8t-1.5 13l6 31 q7 31 14.5 79.5t14 108t6.5 117.5q0 43 -5 82t-16.5 69t-31.5 47.5t-50 17.5q-37 0 -71.5 -24t-66 -63.5t-59.5 -89.5t-52 -102.5t-43 -103.5l-32 -89q-13 -39 -20 -63l-7 -25q-1 -6 -7 -8.5t-12 -1.5t-11 5.5t-4 10.5z" />
<glyph unicode="o" horiz-adv-x="607" d="M133 420q-8 -9 -16 -30q-7 -18 -15 -51.5t-15 -90.5q-1 -8 -1.5 -14.5t-0.5 -14.5q0 -38 12.5 -73.5t35.5 -63t56.5 -44t76.5 -16.5q64 0 112 24t80 66.5t48 100.5t16 125q0 41 -8.5 83t-28.5 76t-53 55.5t-82 21.5q-40 0 -68 -10.5t-46 -26t-27.5 -33.5t-14 -34 t-5.5 -26l-1 -11q-1 -7 -5.5 -12t-12.5 -5t-12.5 5t-4.5 13q3 49 25 88q9 17 23.5 32.5t35 27.5t48.5 19.5t65 7.5q57 0 96.5 -24t64 -63t35.5 -87.5t11 -96.5q0 -75 -18.5 -139t-55.5 -111t-91 -74t-126 -27q-57 0 -99 22.5t-69 60t-38.5 85t-7.5 97.5q8 63 18 100.5 t19 58.5q11 25 22 36q6 5 13 4t12 -7q5 -5 4 -12t-7 -12z" />
<glyph unicode="p" horiz-adv-x="659" d="M151 550q1 7 6.5 11.5t13.5 3.5q7 -1 11.5 -6.5t3.5 -12.5l-23 -200q19 56 41.5 104t49.5 83t59.5 55.5t69.5 20.5q58 0 100.5 -28.5t70.5 -72t41.5 -96t13.5 -101.5q0 -53 -15 -109.5t-45.5 -103t-77 -76.5t-110.5 -30q-59 0 -96.5 27.5t-57.5 60.5q-24 39 -34 88 q-1 8 3 13.5t12 7.5q7 1 12.5 -3t7.5 -12q9 -40 28 -73q17 -28 47 -51t78 -23q56 0 96 27t66 68.5t38.5 92t12.5 96.5q0 42 -11 88t-34 85t-59 64.5t-87 25.5q-50 0 -89.5 -43t-70 -113t-53 -157.5t-38.5 -176.5l-46 -403l-1 -2q-1 -6 -6.5 -9t-11.5 -2.5t-11 4.5t-5 10 q0 1 2 32.5t7 84t13.5 121.5t21.5 144z" />
<glyph unicode="q" horiz-adv-x="590" d="M338 -368q-16 0 -18 17q0 8 4.5 13t12.5 5l77 4q-3 5 -2 11l59 569q-16 -49 -36 -95t-44.5 -82t-54 -57.5t-64.5 -21.5q-58 0 -100 23.5t-69 61.5t-40 87.5t-13 100.5q0 56 21 115t57.5 108.5t86 81t105.5 31.5q37 0 69.5 -15t54.5 -38q20 -20 31 -44.5t11 -46.5v-4 q5 24 8.5 44t5.5 35q3 18 4 31q1 7 6.5 9.5t12.5 2t12 -4.5t4 -11l-1 -2l-91 -881q0 -2 -2 -6l67 3q7 0 12.5 -4.5t5.5 -12.5q0 -16 -17 -18zM485 448q-5 -11 -18 -11q-7 1 -12 7t-3 15q2 16 -7.5 34t-25.5 34q-17 17 -43.5 29.5t-55.5 12.5q-50 0 -92.5 -29t-74 -74 t-49.5 -98t-18 -101q0 -45 10 -87.5t32.5 -75.5t57.5 -53.5t86 -20.5q29 0 54 20t46.5 53.5t39 76.5t31 89.5t24.5 93t18 85.5z" />
<glyph unicode="r" horiz-adv-x="544" d="M95 578q0 8 5.5 12.5t12.5 3.5q17 -2 17 -19l-24 -304q17 57 40 114t52 102.5t65.5 74t80.5 28.5q48 0 77 -11.5t45.5 -29.5t22 -38.5t5.5 -38.5q0 -20 -3 -32q-2 -7 -4 -13q-2 -7 -8 -10t-13 -1q-8 2 -11 8t-1 13q1 4 2 9t1.5 10t0.5 12q0 13 -4 28.5t-16 28.5 t-34.5 21.5t-59.5 8.5q-45 0 -81.5 -37.5t-64.5 -94.5t-48.5 -124t-34.5 -127t-21 -103.5t-8 -52.5v-2q-1 -6 -7 -8.5t-12.5 -2t-11.5 4.5t-4 10z" />
<glyph unicode="s" horiz-adv-x="561" d="M505 446q-7 -15 -23 -10q-15 7 -10 23q2 5 3 9t1 9q0 21 -17.5 37.5t-41.5 28.5t-49.5 18t-42.5 6q-31 0 -65.5 -7t-63.5 -22t-49.5 -38.5t-25.5 -57.5q-4 -26 6 -44.5t28 -31t42 -21t49 -14t47.5 -9.5t37.5 -9q29 -7 60.5 -20t57 -32.5t40.5 -44t12 -54.5 q-3 -37 -25.5 -66.5t-55.5 -50.5t-73 -32t-79 -11q-42 0 -80 16.5t-67.5 36t-46.5 35.5l-18 17q-5 5 -5 12q0 8 5 13t12 5.5t12 -4.5l16 -15q16 -15 42 -33t59.5 -33t70.5 -15q32 0 65.5 9t62 26t48.5 40.5t23 53.5q2 21 -11.5 39.5t-35.5 33t-48.5 25t-49.5 16.5 q-20 6 -47 11t-55 12.5t-54 18t-45.5 27t-29.5 40.5t-5 57q6 42 29.5 71.5t57.5 48t74 27t78 8.5q24 0 56.5 -8.5t61 -24t48.5 -38.5t20 -53q0 -14 -6 -31z" />
<glyph unicode="t" horiz-adv-x="542" d="M68 554q-8 0 -13 4.5t-5 12.5t4.5 13t12.5 5l100 2q11 50 19 97l17 105q2 7 7.5 11.5t13.5 2.5q7 -1 11 -6.5t3 -13.5l-17 -96l-18 -99l271 6q8 0 13 -5t5 -13q0 -7 -5 -12t-12 -5l-278 -6q-22 -123 -37.5 -227t-15.5 -178q0 -58 11.5 -90.5t38.5 -32.5q57 0 93.5 19.5 t56.5 43.5t28 44l7 20q2 7 8 10.5t13 1.5t10.5 -8t1.5 -13l-4 -11q-3 -12 -12.5 -29t-25 -37t-40 -36.5t-58 -28t-78.5 -11.5q-47 0 -66 41.5t-19 116.5t15 178.5t37 225.5z" />
<glyph unicode="u" horiz-adv-x="561" d="M117 581q5 15 22 12q7 -2 10.5 -8.5t1.5 -13.5l-5 -19q-6 -18 -13.5 -48t-16.5 -70t-17 -83.5t-13 -88t-5 -84.5q0 -31 4 -57.5t12.5 -46t23 -30.5t35.5 -11q33 0 64 23.5t59.5 62.5t54 88.5t47.5 101t39.5 101t29.5 88.5l19 63l7 24q2 6 7.5 8.5t11.5 1t11 -5.5t4 -11 l-61 -564q-1 -8 -6.5 -12.5t-12.5 -2.5q-8 1 -12.5 6t-3.5 13l42 391q-15 -43 -34 -90t-42 -92.5t-48.5 -87t-53.5 -73t-58.5 -50t-63.5 -18.5q-30 0 -50.5 15t-33 40.5t-17.5 59.5t-5 73q0 42 5 88t12.5 90t16 83t16 69t12.5 48z" />
<glyph unicode="v" horiz-adv-x="514" d="M57 544q2 17 19 17q7 -1 12 -6t4 -13l-2 -21l-2.5 -55t-3 -78t-1.5 -90q0 -50 2 -98.5t8 -87t16.5 -62t26.5 -23.5q17 0 38 24.5t45 64.5t49 91l48 105l44 104l36 91q16 40 25 65l9 25q2 7 8.5 10t13.5 1q16 -7 11 -23l-9 -25l-26 -68l-39 -95l-47 -109l-53 -108 q-27 -54 -54 -95.5t-52.5 -67t-46.5 -25.5q-27 0 -43.5 33t-26 84.5t-13 114t-3.5 121.5q0 41 1 77t3 63q2 32 3 59z" />
<glyph unicode="w" horiz-adv-x="796" d="M68 573q8 0 12.5 -5t4.5 -13v-54q0 -34 0.5 -82t2.5 -101t6 -105t10 -93.5t15.5 -67.5t22.5 -26q17 0 40.5 27t49 68.5t50.5 91t44 95.5q-1 14 -1.5 28.5t-0.5 28.5v17q0 9 1 17q4 28 13.5 44t26.5 16q22 0 28 -24q3 -15 0.5 -31.5t-8 -33.5t-12 -34t-11.5 -33 q1 -15 3 -31l4 -30q6 -40 15 -78.5t19.5 -69t21.5 -49.5t23 -19t30 25.5t39 67.5t43.5 95t43.5 109l42 109l34 96l23 68l9 26q2 7 8.5 10t13.5 1t10 -8.5t1 -13.5l-9 -27l-24 -70l-37 -100l-45 -114q-23 -58 -48 -113.5t-49 -99t-46 -70t-39 -26.5q-19 0 -36.5 22t-32 57 t-26 79.5t-18.5 89.5q-21 -45 -47 -89.5t-52 -79.5t-50.5 -57t-43.5 -22q-21 0 -36.5 30.5t-25.5 80t-16 112t-9 125t-4 120t-1 97.5q0 7 5 12t13 5z" />
<glyph unicode="x" horiz-adv-x="529" d="M83 15q-2 -7 -9 -9.5t-13 0.5q-16 7 -9 23q8 18 26.5 46.5l43.5 64.5l57 75l63 81l-52 82l-46 79.5t-37.5 70.5t-24.5 57q-5 16 10 23q16 5 23 -11q8 -23 23 -53.5t35 -65.5l43 -75l49 -78l65 83l56 75l40 58.5t18 35.5q2 7 7.5 11.5t13.5 2.5q16 -4 13 -21 q-3 -14 -20 -42t-44 -64l-60 -81l-69 -89l65 -98l56 -84l40 -58l16 -22q10 -13 -4 -24q-6 -4 -13 -3t-11 7l-15 20l-39 56l-54 81l-64 96l-60 -77l-53 -71q-24 -33 -41.5 -59.5t-24.5 -42.5z" />
<glyph unicode="y" horiz-adv-x="587" d="M85 595q0 7 5 12t13 5t12.5 -5t4.5 -12q0 -39 3.5 -82t10 -87t15 -86.5t17.5 -81.5q18 -74 34.5 -117.5t24.5 -43.5q13 0 27 21l29 43l36 57l39 64l38 68l36 67l21 50l18 42q18 45 30 68.5t24 20.5q17 -4 13 -29q-5 -20 -24.5 -64t-47.5 -98l-67 -155l-87 -188l-105 -211 q-57 -110 -122 -221q-4 -6 -11 -8t-13 2q-14 9 -6 24q73 126 136 249l115 234q-22 -33 -38 -52q-12 -14 -22.5 -21.5t-18.5 -7.5q-10 0 -22 15t-24.5 41.5t-24 62.5t-22.5 78q-20 81 -33.5 173t-13.5 173z" />
<glyph unicode="z" horiz-adv-x="563" d="M102 555q-8 0 -13 5t-5 12q0 8 5 13t12 5l394 4q11 1 16 -10t-3 -19l-18 -19l-45 -49l-65 -71l-74 -83l-76 -86l-68 -81q-30 -37 -50 -65.5t-24 -41.5q-7 -25 19 -34.5t69 -9.5q39 0 84 5.5t83.5 12t64.5 11.5l26 6q17 3 21 -13q2 -7 -2 -13t-11 -8l-24 -5 q-23 -5 -59.5 -10.5t-80.5 -10.5t-86 -5q-32 0 -60.5 4t-48 13.5t-28 25.5t-1.5 41q5 17 30 52t62 80l81 95l87 99l80 89l61 65z" />
<glyph unicode="{" horiz-adv-x="500" d="M368 991q8 1 13.5 -3t6.5 -12q2 -17 -15 -20q-13 -2 -23.5 -21t-18.5 -50t-15 -70l-14 -81q-7 -46 -15.5 -92t-20 -86.5t-27 -72.5t-38.5 -50q25 -26 33 -71.5t8 -99.5q0 -28 -1 -56.5t-3 -57.5t-3 -56t-1 -51q0 -42 5.5 -68.5t22.5 -28.5q8 -1 12.5 -6t3.5 -13 q-1 -7 -6.5 -11.5t-12.5 -3.5q-37 4 -48.5 42.5t-11.5 95.5q0 24 1 49.5t3 52.5q2 29 3 58t1 56q0 57 -9 100t-37 55q-11 5 -10 17t12 16q23 7 39 34.5t28 67.5t21 88.5t16 96.5l16 91q8 44 19 78.5t27 57t39 25.5z" />
<glyph unicode="|" horiz-adv-x="187" d="M101 1006q2 17 19 17q7 0 12 -5.5t4 -13.5l-50 -1168q-2 -17 -18 -17q-8 1 -13 6t-4 13z" />
<glyph unicode="}" horiz-adv-x="338" d="M70 -95q-7 -1 -12.5 3.5t-6.5 11.5q-2 8 2.5 13.5t11.5 6.5q14 2 24.5 21t18.5 50t15 71l14 81q7 46 15 92t19.5 86.5t27.5 72t39 49.5q-26 26 -34 72.5t-8 102.5q0 27 1 54.5t3 55.5q2 29 3 56.5t1 51.5q0 42 -5.5 68t-22.5 28q-7 1 -11.5 6t-3.5 13q1 7 6 11.5t13 3.5 q36 -4 47.5 -42t11.5 -95q0 -24 -1 -49.5t-3 -52.5q-2 -29 -3 -57.5t-1 -56.5q0 -57 9 -100.5t37 -55.5q11 -5 10 -17t-12 -15q-23 -7 -39 -35t-28 -68t-20 -88l-17 -97q-7 -47 -15 -91t-19.5 -78.5t-27.5 -57t-39 -25.5z" />
<glyph unicode="~" horiz-adv-x="473" d="M85 709q-2 -7 -7.5 -11t-12.5 -2q-8 2 -12 7.5t-2 12.5l5 16q4 16 17 35t35 35t57 16q20 0 33.5 -5.5t22.5 -14t14.5 -19.5t10.5 -22t9.5 -19t14.5 -8q17 0 38 11.5t40 25.5q22 17 45 37q5 5 12 5q8 0 13 -5t4.5 -12.5t-5.5 -12.5q-25 -24 -51 -42q-22 -16 -47.5 -29 t-48.5 -13q-26 0 -37 14.5t-19 33.5q-6 14 -15.5 27t-33.5 13t-39.5 -11.5t-24.5 -25.5q-11 -17 -16 -37z" />
<glyph unicode="&#xa2;" horiz-adv-x="601" d="M266 -17q-55 4 -97 28t-69.5 63t-39.5 90t-8 108q4 74 27 136.5t61 108.5t90 73t115 29l13 107q2 7 7 11.5t13 3.5t12 -6.5t3 -12.5l-13 -103q76 -7 123 -53t47 -121v-17q0 -8 -2 -16t-7.5 -12t-12.5 -2q-8 1 -12 6.5t-3 13.5q3 17 3 32q0 59 -39.5 94t-100.5 40 l-71 -566q29 3 56.5 13.5t51.5 25.5t43 33t29 36q3 6 10 8t14 -2q6 -3 8 -10t-2 -13q-13 -23 -35.5 -44t-51 -38t-61 -28.5t-66.5 -15.5l-13 -106q-1 -7 -6.5 -11.5t-12.5 -3.5q-8 1 -12.5 6.5t-2.5 13.5zM87 270q-3 -50 6.5 -95t32.5 -79.5t59 -55.5t85 -23l70 567 q-55 -3 -100.5 -27.5t-78 -66t-51.5 -98t-23 -122.5z" />
<glyph unicode="&#xa3;" horiz-adv-x="682" d="M380 511q8 1 13 -3.5t6 -12.5q0 -17 -17 -19l-189 -11q1 -11 1 -21v-19v-20q0 -9 -1 -19l187 18q7 1 12.5 -3.5t6.5 -12.5q0 -7 -4.5 -12.5t-11.5 -5.5l-190 -18q-2 -54 -6.5 -101t-10.5 -87q-4 -23 -8 -43.5t-9 -37.5q42 16 88 26.5t84 10.5q19 0 34 -3 q27 -5 51.5 -17.5t47.5 -26.5q22 -13 42 -23t39 -10q14 0 28 7.5t27 26.5q11 14 24 4q6 -4 7.5 -11t-2.5 -13q-20 -29 -40 -40.5t-40 -11.5q-25 0 -50.5 12.5t-52.5 28.5l-43 23q-22 12 -45 17q-19 4 -46 2t-56 -9t-58 -16.5t-53 -20.5l-3 -6q-25 -57 -59 -56q-2 1 -5 1 t-6 1q-17 6 -20 20q-6 19 16 36q14 13 39 25q3 2 5.5 2.5t4.5 2.5q7 20 13.5 46.5t11.5 58.5q6 38 10 83t6 96l-70 -6q-7 -1 -12.5 3.5t-6.5 11.5q0 8 4.5 13.5t11.5 5.5l73 6q1 10 1 20v20v19q0 10 -1 21l-79 -4q-8 -1 -13 3.5t-6 12.5q0 17 17 19l80 4q-1 54 -6 113 q-1 9 -1 18v17q0 55 13.5 96.5t36.5 72.5q17 21 36.5 36.5t42.5 26.5q43 21 94 24q54 5 106 -9.5t90 -43.5q20 -15 26.5 -40t4.5 -49q-1 -10 -4 -18q-2 -10 -6 -17q-3 -7 -10 -9t-13 1q-7 3 -9.5 10t1.5 13q1 3 2 5.5t2 5.5q2 8 2 12q2 17 -2 33.5t-16 24.5q-32 25 -78 37.5 t-94 8.5q-44 -3 -81 -21q-19 -9 -35.5 -22t-30.5 -31q-20 -26 -31.5 -62.5t-11.5 -85.5v-16q0 -7 1 -15q5 -58 6 -114z" />
<glyph unicode="&#xa5;" horiz-adv-x="725" d="M138 919q5 6 12 7t13 -4q5 -5 6 -12t-4 -13q-17 -21 -31 -50.5t-24 -64t-15.5 -72t-5.5 -75.5q0 -48 10.5 -93.5t34 -80.5t61.5 -56.5t92 -21.5q82 0 149.5 37.5t113.5 103.5q43 61 66 141t23 171v26q0 13 -2 27q0 17 17 19q7 1 12.5 -4t5.5 -12q3 -28 3 -56 q0 -97 -25 -181.5t-71 -150.5q-52 -73 -126.5 -114.5t-165.5 -41.5q-62 0 -106 24.5t-72.5 64.5t-41.5 91.5t-13 106.5q0 41 6 81.5t17.5 78t27 69.5t33.5 55zM275 99l-18 -112q-2 -8 -7.5 -12.5t-13.5 -2.5q-16 4 -14 20l18 108l-173 9q-7 1 -12 5.5t-5 12.5q0 7 5.5 12 t12.5 4l177 -8l28 166l-195 10q-7 1 -12 5.5t-5 12.5q0 7 5.5 12t12.5 4l437 -21q8 1 13 -4.5t4 -13.5q0 -8 -5.5 -12.5t-13.5 -4.5l-206 10l-28 -166l225 -10q8 0 13 -5t4 -13q0 -8 -5.5 -13t-13.5 -4z" />
<glyph unicode="&#xa9;" horiz-adv-x="975" d="M136 710q4 7 11 8.5t13 -2.5q7 -4 8.5 -11t-2.5 -13q-39 -63 -58.5 -130.5t-21.5 -134.5q-3 -114 43 -211q23 -48 56 -86.5t77 -65.5q37 -23 81.5 -36.5t95.5 -15.5q124 -3 205 27t132 85q51 56 76.5 132t34.5 165q1 10 1.5 20.5t0.5 21.5q3 79 -14.5 152t-55.5 131 q-38 57 -97.5 94t-140.5 45q-7 1 -13.5 1.5t-14.5 0.5q-103 3 -167 -14t-101 -47q-35 -29 -50 -67.5t-17 -80.5q-1 -8 -6 -12.5t-13 -3.5q-7 0 -12 5.5t-4 12.5q3 48 20 93t60 80q42 34 112 53t179 16q8 0 15 -0.5t15 -1.5q91 -9 156.5 -50.5t107.5 -104.5t60.5 -140.5 t15.5 -162.5q0 -21 -3 -45q-9 -94 -36 -175.5t-83 -141.5t-144 -93t-220 -30q-56 2 -104.5 16.5t-90.5 40.5q-48 30 -84.5 72.5t-61.5 94.5q-49 104 -46 227q2 72 22.5 143.5t62.5 138.5zM542 689q-29 0 -58 -6l-22 -6q-11 -3 -22 -8q-54 -23 -94 -73t-53 -128 q-4 -20 -5.5 -39.5t-1.5 -36.5q0 -63 21 -105q16 -36 48 -59q31 -22 72 -28q19 -4 44 -4q85 0 190 50q7 3 13.5 0.5t9.5 -8.5q4 -7 1.5 -13.5t-9.5 -10.5q-56 -26 -108.5 -39.5t-99.5 -13.5q-12 0 -24 1t-23 3q-24 5 -46 13t-41 22q-38 28 -59 72q-24 50 -24 120 q0 19 1.5 39.5t5.5 42.5q15 88 60.5 144.5t108.5 82.5q12 5 24.5 9t25.5 7q29 7 64 7q87 2 131 -29q18 -13 26 -28q9 -15 11 -37q0 -34 -26 -72q-4 -6 -11 -7.5t-13 2.5q-6 5 -7.5 12t2.5 12q20 29 20 52q0 11 -6 20q-4 9 -16 17q-35 25 -110 23z" />
<glyph unicode="&#xad;" d="M68 300q-16 0 -18 17q0 7 5 12t12 5l438 3q8 1 13 -4t5 -13t-5 -13t-13 -5z" />
<glyph unicode="&#xae;" horiz-adv-x="976" d="M136 711q11 14 25 5q6 -3 7.5 -10t-2.5 -13q-39 -63 -58.5 -130.5t-21.5 -134.5q-3 -115 43 -212q23 -48 56 -86.5t77 -65.5q37 -23 81.5 -36t95.5 -15q124 -3 205 27t132 85t76.5 131t34.5 165q1 11 1.5 21.5t1.5 21.5q2 79 -15.5 151.5t-55.5 130.5q-38 57 -97.5 94.5 t-140.5 45.5q-7 0 -13.5 0.5t-14.5 0.5h-29q-90 0 -147.5 -16t-91.5 -44q-35 -29 -50 -67.5t-17 -80.5q-2 -17 -19 -17q-7 1 -12 6t-4 13q3 48 20 93t60 80q39 32 101 50.5t157 18.5q8 0 16.5 -0.5t16.5 -0.5t15 -0.5t15 -1.5q91 -9 156.5 -50t107.5 -105 q42 -63 60.5 -140.5t16.5 -162.5q-1 -21 -3 -45q-10 -94 -37 -175t-83 -141t-144 -93.5t-219 -29.5q-57 2 -105.5 16.5t-90.5 40.5q-48 29 -84.5 72t-61.5 94q-24 51 -36 109t-10 118q2 72 22.5 144t62.5 139zM317 664q-7 -2 -13 2.5t-7 11.5q-2 7 2 13t12 7q48 8 92 13.5 t84 5.5q48 0 85 -9q48 -12 76.5 -40t28.5 -79q0 -15 -3 -32q-2 -9 -4 -17l-4 -16q-12 -35 -35.5 -58.5t-52.5 -37.5q-15 -7 -31 -11t-32 -6q9 -11 18 -24l20 -28l47 -63q26 -34 55 -64q5 -5 5 -13q0 -7 -5 -12t-13 -5q-7 0 -12 5q-31 32 -57 67l-48 65l-29 41q-14 18 -26 31 h-1q-3 1 -7 1q-3 0 -6 1l-18 4q-10 2 -18 5q-9 3 -11.5 12.5t5.5 16.5q14 14 30 14q10 0 19.5 -5.5t20.5 -14.5q43 -2 79 15q23 11 41.5 29t28.5 47q4 12 6 26q8 49 -12.5 75t-62.5 37q-17 5 -36.5 6.5t-41.5 1.5q-38 0 -80.5 -5t-88.5 -13zM378 647q1 8 6 12.5t13 3.5 q7 -1 11.5 -6.5t3.5 -13.5l-47 -411q-1 -8 -6.5 -12.5t-13.5 -3.5q-7 1 -11.5 6.5t-3.5 13.5z" />
<glyph unicode="&#xb4;" horiz-adv-x="390" d="M73 672q-7 -2 -13.5 2t-8.5 11t1.5 13t11.5 8q54 15 99 37.5t78 43.5q39 25 69 51q5 5 12.5 4.5t12.5 -5.5t4.5 -12.5t-5.5 -12.5q-33 -29 -73 -55q-35 -23 -82.5 -46t-105.5 -39z" />
<glyph unicode="&#x2000;" horiz-adv-x="511" />
<glyph unicode="&#x2001;" horiz-adv-x="1023" />
<glyph unicode="&#x2002;" horiz-adv-x="511" />
<glyph unicode="&#x2003;" horiz-adv-x="1023" />
<glyph unicode="&#x2004;" horiz-adv-x="341" />
<glyph unicode="&#x2005;" horiz-adv-x="255" />
<glyph unicode="&#x2006;" horiz-adv-x="170" />
<glyph unicode="&#x2007;" horiz-adv-x="170" />
<glyph unicode="&#x2008;" horiz-adv-x="127" />
<glyph unicode="&#x2009;" horiz-adv-x="204" />
<glyph unicode="&#x200a;" horiz-adv-x="56" />
<glyph unicode="&#x2010;" d="M68 300q-16 0 -18 17q0 7 5 12t12 5l438 3q8 1 13 -4t5 -13t-5 -13t-13 -5z" />
<glyph unicode="&#x2011;" d="M68 300q-16 0 -18 17q0 7 5 12t12 5l438 3q8 1 13 -4t5 -13t-5 -13t-13 -5z" />
<glyph unicode="&#x2013;" horiz-adv-x="622" d="M68 300q-16 0 -18 17q0 7 5 12t12 5l487 3q8 1 13 -4t5 -13t-5 -13t-13 -5z" />
<glyph unicode="&#x2014;" horiz-adv-x="894" d="M68 300q-16 0 -18 17q0 7 5 12t12 5l759 3q8 1 13 -4t5 -13t-5 -13t-13 -5z" />
<glyph unicode="&#x2018;" horiz-adv-x="209" d="M102 744q7 -2 10.5 -8t1.5 -13q-2 -8 -8 -11.5t-13 -1.5q-20 5 -32 19.5t-10 35.5q2 16 10.5 31.5t19.5 29.5t24 25.5t25 20.5q6 5 13 3.5t12 -6.5q5 -6 3.5 -13t-7.5 -12q-9 -7 -19.5 -16t-20.5 -20t-16.5 -23t-8.5 -24q0 -8 4 -11t12 -6z" />
<glyph unicode="&#x2019;" horiz-adv-x="209" d="M107 842q-7 2 -10.5 8t-1.5 13q2 8 8 11.5t13 1.5q20 -5 32 -19.5t10 -35.5q-2 -16 -10 -31.5t-19.5 -29.5t-24.5 -25.5t-25 -20.5q-6 -5 -13 -3.5t-12 6.5q-5 6 -3.5 13t7.5 12q9 7 19.5 16t20.5 20t17 23t8 24q0 8 -4 11t-12 6z" />
<glyph unicode="&#x201c;" horiz-adv-x="313" d="M206 744q7 -2 10.5 -8t1.5 -13q-2 -8 -8 -11.5t-13 -1.5q-20 5 -32 19.5t-10 35.5q2 16 10.5 31.5t19.5 29.5t24 25.5t25 20.5q6 5 13 3.5t12 -6.5q5 -6 3.5 -13t-7.5 -12q-9 -7 -19.5 -16t-20.5 -20t-16.5 -23t-8.5 -24q0 -8 4 -11t12 -6zM102 744q7 -2 10 -8.5t1 -12.5 q-2 -8 -8 -11.5t-13 -1.5q-20 6 -31.5 20.5t-9.5 35.5q6 32 32 60t50 45q6 5 13 3.5t12 -7.5t3.5 -13t-7.5 -12q-9 -6 -20.5 -15t-21 -19.5t-17 -22.5t-9.5 -24q0 -8 4 -11t12 -6z" />
<glyph unicode="&#x201d;" horiz-adv-x="313" d="M107 842q-7 2 -10.5 8t-1.5 13q2 8 8 11.5t13 1.5q20 -5 32 -19.5t10 -35.5q-2 -16 -10 -31.5t-19.5 -29.5t-24.5 -25.5t-25 -20.5q-6 -5 -13 -3.5t-12 6.5q-5 6 -3.5 13t7.5 12q9 7 19.5 16t20.5 20t17 23t8 24q0 8 -4 11t-12 6zM211 842q-7 2 -10 8.5t-1 12.5 q2 8 8 11.5t13 1.5q20 -6 31.5 -20.5t9.5 -35.5q-6 -32 -32 -60t-50 -45q-6 -5 -13 -3.5t-12 7.5t-3.5 13t7.5 12q9 6 20.5 15t21 19.5t17 22.5t9.5 24q0 8 -4 11t-12 6z" />
<glyph unicode="&#x2022;" horiz-adv-x="314" d="M157 280q-6 5 -7.5 12t3.5 13q4 6 11 7t13 -3q1 -1 1.5 -0.5t2.5 -0.5q13 -2 23.5 -7t9.5 -29q0 -6 -2 -14q-6 -18 -20 -27q-13 -10 -29 -10q-8 0 -11 2q-4 1 -12 5l-9 9q-11 11 -17 27.5t-4 31.5v1q0 4 2 12q3 8 6 12q8 14 23.5 24t37.5 11h1q31 0 56 -22q12 -11 20 -26 t8 -34v-1q0 -5 -0.5 -10t-1.5 -10q-2 -5 -3 -9.5t-3 -9.5q-11 -23 -33 -37.5t-54 -17.5q-4 -1 -9 -1q-20 0 -39 9t-34 24t-25 34t-12 40v18q2 21 14 39t28 30q35 27 69 27h8q7 -1 11.5 -6.5t3.5 -13.5q-1 -7 -6 -11.5t-13 -3.5h-4q-23 0 -47 -19q-11 -9 -19 -20.5t-10 -24.5 v-12q3 -29 26 -52q11 -11 23.5 -17t25.5 -6h5q23 2 37.5 12t21.5 24q2 3 4 11q1 4 1 13q0 21 -16 35q-15 13 -33 13q-22 -1 -32 -17q-2 -4 -2 -6q-1 -1 -1 -2t-1 -3q-1 -8 3 -17.5t10 -15.5l3 -3q1 0 1 -1h1h2q4 0 8 3t7 9v5l-2 1q-5 0 -10 1t-10 5z" />
<glyph unicode="&#x2026;" horiz-adv-x="388" d="M66 -15q-7 2 -11.5 7.5t-3.5 12.5q2 8 7.5 12t12.5 3l31 -4q7 -2 11.5 -7.5t3.5 -12.5q-2 -8 -7.5 -12t-12.5 -3zM176 -15q-7 2 -11.5 8t-3.5 13q2 8 7.5 11.5t12.5 2.5l31 -4q7 -2 11.5 -8t3.5 -13q-2 -8 -7.5 -11.5t-12.5 -2.5zM285 -14q-6 2 -10.5 7.5t-3.5 12.5 q2 8 8 12t13 2l31 -5q6 -2 10.5 -7.5t3.5 -12.5q-2 -8 -8 -12t-13 -2z" />
<glyph unicode="&#x202f;" horiz-adv-x="204" />
<glyph unicode="&#x205f;" horiz-adv-x="255" />
<glyph unicode="&#x20ac;" horiz-adv-x="804" d="M50 377q0 8 5 13t13 5h87q4 48 12 100h-73q-8 0 -13 5t-5 13q0 7 5 12t13 5h80q18 66 44.5 136t67 127.5t96.5 94t132 36.5q40 0 82.5 -7t77.5 -23t57.5 -43t22.5 -68q0 -23 -9 -52q-2 -8 -8.5 -11t-13.5 -1t-10.5 8.5t-1.5 13.5q3 11 5 21t2 19q0 34 -19.5 55t-49.5 33 t-66 16t-69 4q-68 0 -117.5 -34t-85.5 -86.5t-60 -116t-41 -122.5h352q8 0 12.5 -5t4.5 -12q0 -8 -4.5 -13t-12.5 -5h-360q-9 -51 -12 -100h346q7 0 12 -5t5 -13t-5 -12.5t-12 -4.5h-347v-5q0 -56 11.5 -117t38.5 -112t71.5 -84t111.5 -33q74 0 129 21.5t91 47t54 47.5 l18 22q11 12 24 4q6 -5 7.5 -12t-3.5 -13q-32 -42 -79 -75q-40 -29 -100 -52.5t-141 -23.5q-50 0 -89.5 16t-69.5 44t-50.5 65.5t-33.5 79.5t-19 87t-6 88v5h-86q-8 0 -13 4.5t-5 12.5z" />
<glyph unicode="&#x2122;" horiz-adv-x="500" d="M297 925q-1 8 3.5 13t11.5 6q8 1 13.5 -3t6.5 -12v-5q2 -3 2 -10v-1q2 -15 6 -41t9.5 -55.5t12.5 -60.5t15.5 -55.5t18 -40t20.5 -14.5q9 0 24.5 21.5t34 53.5t36.5 69l33 70l26 52l9 22q3 6 8.5 8t11.5 0.5t10 -6t3 -10.5l-34 -407q-1 -8 -6 -12.5t-13 -3.5q-7 1 -12 6 t-4 13l26 309q-16 -34 -36.5 -72t-41 -70.5t-40 -54.5t-33.5 -23h-1q-18 -1 -33.5 17t-28 47.5t-22.5 65t-17 69.5l-48 -278q-2 -8 -7.5 -12t-13.5 -2q-7 1 -11 6.5t-3 13.5l65 377q0 2 -0.5 3.5t-0.5 3.5v3zM-37 898q-8 0 -13 5t-5 13q0 7 5 12t13 5l304 2q8 0 13 -4.5 t5 -12.5t-5 -13t-13 -5l-157 -1q6 -2 10.5 -7t3.5 -12l-38 -348q-1 -8 -6 -12.5t-13 -3.5q-7 1 -11.5 6.5t-3.5 12.5l38 349q2 12 14 15z" />
</font>
</defs>
</svg>
